<svg width="22" height="23" viewBox="0 0 22 23" fill="none" xmlns="http://www.w3.org/2000/svg">
<path fill-rule="evenodd" clip-rule="evenodd" d="M19.9628 2.02023C18.5688 2.00903 17.04 2.20299 15.6565 2.59761C14.2911 2.98704 12.9985 3.5915 12.1344 4.45051L9.49521 6.89013L7.18897 6.0887C6.94568 6.00415 6.67546 6.06613 6.49334 6.24825L4.70167 8.03992C4.43929 8.30229 4.43929 8.7277 4.70165 8.99008L13.6594 17.9484C13.7854 18.0745 13.9563 18.1452 14.1345 18.1452C14.3127 18.1452 14.4836 18.0745 14.6096 17.9484L16.4013 16.1567C16.5834 15.9746 16.6454 15.7044 16.5608 15.4612L15.7594 13.1544L18.199 10.5152C19.8793 8.82663 20.6293 5.88558 20.6293 2.69209C20.6293 2.32313 20.3317 2.02321 19.9628 2.02023ZM17.1943 6.72348L15.9217 5.45089L14.6548 6.71779L15.9273 7.99038L17.1943 6.72348Z" fill="#FCD404"/>
<path fill-rule="evenodd" clip-rule="evenodd" d="M5.81092 12.8084L2.63701 15.9053L1.37012 14.6384L4.54403 11.5415L5.81092 12.8084ZM8.49842 15.4959L2.63701 21.2803L1.37012 20.0134L7.23153 14.229L8.49842 15.4959ZM11.1859 18.1834L8.01201 21.2803L6.74512 20.0134L9.91905 16.9165L11.1859 18.1834Z" fill="#FCD404"/>
</svg>
