<svg width="41" height="41" viewBox="0 0 41 41" fill="none" xmlns="http://www.w3.org/2000/svg">
<path d="M6.42802 14.7291C7.15291 15.4773 8.31961 15.4773 10.653 15.4773C12.9864 15.4773 14.1531 15.4773 14.878 14.7291C15.6029 13.981 15.6029 12.7768 15.6029 10.3685C15.6029 7.96024 15.6029 6.75609 14.878 6.00793C14.1531 5.25977 12.9864 5.25977 10.653 5.25977C8.31961 5.25977 7.15291 5.25977 6.42802 6.00793C5.70313 6.75609 5.70312 7.96024 5.70312 10.3685C5.70312 12.7768 5.70313 13.981 6.42802 14.7291Z" stroke="#FCD404" stroke-width="2.51434" stroke-linecap="round" stroke-linejoin="round"/>
<path d="M26.2278 14.7291C26.9527 15.4773 28.1194 15.4773 30.4528 15.4773C32.7862 15.4773 33.9529 15.4773 34.6778 14.7291C35.4027 13.981 35.4027 12.7768 35.4027 10.3685C35.4027 7.96024 35.4027 6.75609 34.6778 6.00793C33.9529 5.25977 32.7862 5.25977 30.4528 5.25977C28.1194 5.25977 26.9527 5.25977 26.2278 6.00793C25.5029 6.75609 25.5029 7.96024 25.5029 10.3685C25.5029 12.7768 25.5029 13.981 26.2278 14.7291Z" stroke="#FCD404" stroke-width="2.51434" stroke-linecap="round" stroke-linejoin="round"/>
<path d="M26.2278 35.1647C26.9527 35.9128 28.1194 35.9128 30.4528 35.9128C32.7862 35.9128 33.9529 35.9128 34.6778 35.1647C35.4027 34.4165 35.4027 33.2123 35.4027 30.8041C35.4027 28.3958 35.4027 27.1917 34.6778 26.4434C33.9529 25.6953 32.7862 25.6953 30.4528 25.6953C28.1194 25.6953 26.9527 25.6953 26.2278 26.4434C25.5029 27.1917 25.5029 28.3958 25.5029 30.8041C25.5029 33.2123 25.5029 34.4165 26.2278 35.1647Z" stroke="#FCD404" stroke-width="2.51434" stroke-linecap="round" stroke-linejoin="round"/>
<path d="M6.42802 35.1647C7.15291 35.9128 8.31961 35.9128 10.653 35.9128C12.9864 35.9128 14.1531 35.9128 14.878 35.1647C15.6029 34.4165 15.6029 33.2123 15.6029 30.8041C15.6029 28.3958 15.6029 27.1917 14.878 26.4434C14.1531 25.6953 12.9864 25.6953 10.653 25.6953C8.31961 25.6953 7.15291 25.6953 6.42802 26.4434C5.70313 27.1917 5.70312 28.3958 5.70312 30.8041C5.70312 33.2123 5.70313 34.4165 6.42802 35.1647Z" stroke="#FCD404" stroke-width="2.51434" stroke-linecap="round" stroke-linejoin="round"/>
<path d="M20.5524 10.3682H15.6025" stroke="#FCD404" stroke-width="2.51434" stroke-linecap="round" stroke-linejoin="round"/>
<path d="M25.5026 30.8047H20.5527" stroke="#FCD404" stroke-width="2.51434" stroke-linecap="round" stroke-linejoin="round"/>
<path d="M30.4521 20.5863V15.4775" stroke="#FCD404" stroke-width="2.51434" stroke-linecap="round" stroke-linejoin="round"/>
<path d="M10.6533 25.6957V20.5869" stroke="#FCD404" stroke-width="2.51434" stroke-linecap="round" stroke-linejoin="round"/>
</svg>
