<svg width="702" height="298" viewBox="0 0 702 298" fill="none" xmlns="http://www.w3.org/2000/svg">
<g filter="url(#filter0_f_4891_14961)">
<path d="M-78.5464 58.6478C-95.4748 76.0322 -77.3017 87.2907 -24.0271 92.4232C29.2474 97.5558 74.0577 103.019 110.404 108.814C146.75 114.609 187.328 118.334 232.139 119.99C276.949 121.646 325.991 120.404 379.266 116.265C432.541 112.126 471.376 101.695 495.773 84.9728C520.17 68.2506 528.883 51.0318 521.912 33.3163C514.942 15.6008 488.802 2.18994 443.494 -6.91617C398.186 -16.0223 363.333 -27.198 338.937 -40.4432C314.54 -53.6885 278.443 -62.2151 230.645 -66.0231C182.847 -69.8311 136.543 -68.1755 91.733 -61.0562C46.9226 -53.9368 3.60595 -45.1619 -38.217 -34.7312C-80.04 -24.3006 -92.9853 -10.4759 -77.0527 6.74297C-61.1201 23.9618 -61.6181 41.2634 -78.5464 58.6478Z" fill="#FED402"/>
</g>
<defs>
<filter id="filter0_f_4891_14961" x="-261.796" y="-245.141" width="963.159" height="542.967" filterUnits="userSpaceOnUse" color-interpolation-filters="sRGB">
<feFlood flood-opacity="0" result="BackgroundImageFix"/>
<feBlend mode="normal" in="SourceGraphic" in2="BackgroundImageFix" result="shape"/>
<feGaussianBlur stdDeviation="88.5635" result="effect1_foregroundBlur_4891_14961"/>
</filter>
</defs>
</svg>
