<svg width="500" height="300" viewBox="0 0 500 300" fill="none" xmlns="http://www.w3.org/2000/svg">
<mask id="path-1-inside-1_4891_14962" fill="white">
<path fill-rule="evenodd" clip-rule="evenodd" d="M49.9171 0.174739H0.174739V49.9171H44.7638L49.9171 44.7638V0.174739ZM55.2079 49.9171L50.121 44.8303V0.174739H99.8634V49.9171H55.2079ZM50.121 55.1321L55.1321 50.121H99.8634V99.8634H50.121V55.1321ZM44.8396 50.121L49.9171 55.1986V99.8634H0.174739V50.121H44.8396ZM0 0V49.9463V50.0919V99.8924V100.038V149.839V149.984V199.785V199.931V249.731V249.877V299.823H49.9463H50.0919H99.8924H100.038H149.839H149.984H199.785H199.931H249.731H249.877H299.677H299.823H349.624H349.769H399.57H399.716H449.516H449.662H499.608L499.608 249.877V199.931V199.785V149.839V100.038V50.0919V49.9463V0H449.662H449.516H399.716H399.57H349.769H349.624H299.823H299.677H249.877H249.731H199.931H199.785H149.984H149.839H100.038H99.8924H50.0919H49.9463H0ZM100.067 0.174739H149.81V49.9171H100.067V0.174739ZM199.756 0.174739H150.013V49.9171H199.756V0.174739ZM199.96 0.174739H249.702V49.9171H199.96V0.174739ZM299.648 0.174739H249.906V49.9171H299.648V0.174739ZM299.852 0.174739H349.595V49.9171H299.852V0.174739ZM399.541 0.174739H349.798V49.9171H399.541V0.174739ZM399.745 0.174739H449.487V49.9171H399.745V0.174739ZM499.434 0.174739H449.691V49.9171H499.434V0.174739ZM100.067 50.121H149.81V99.8634H100.067V50.121ZM199.756 50.121H150.013V99.8634H194.752L199.756 94.86V50.121ZM204.883 99.8634L199.96 94.9401V50.121H249.702V99.8634H204.883ZM199.96 105.228L205.104 100.084L205.087 100.067H249.702V149.81H199.96V105.228ZM194.549 100.067L194.532 100.084L199.756 105.308V149.81H150.013V100.067H194.549ZM299.648 50.121H249.906V99.8634H299.648V50.121ZM299.852 50.121H349.595V99.8634H299.852V50.121ZM399.541 50.121H349.798V99.8634H399.541V50.121ZM399.745 50.121H449.487V86.0633L449.403 86.1477L435.687 99.8634H399.745V50.121ZM435.483 100.067H399.745V144.909L399.912 144.742L404.979 149.81H449.487V114.105L449.403 114.021L435.601 100.219L435.466 100.084L435.483 100.067ZM449.487 113.835L435.736 100.084L435.753 100.067H444.269L444.252 100.084L449.487 105.32V113.835ZM449.691 114.002V149.81H499.433V100.067H463.592L463.609 100.084L463.474 100.219L449.691 114.002ZM463.322 100.067L463.339 100.084L449.691 113.732V105.217L454.824 100.084L454.807 100.067H463.322ZM463.388 99.8634H499.434V50.121H449.691V86.1662L463.388 99.8634ZM449.691 86.4362L463.118 99.8634H454.603L449.691 94.9515V86.4362ZM449.487 86.3332L435.957 99.8634H444.472L449.487 94.8488V86.3332ZM399.745 155.147L399.912 155.314L405.198 150.028L405.183 150.013H449.487V199.756H399.745V155.147ZM394.64 150.013L394.626 150.028L399.541 154.943V199.756H349.798V150.013H394.64ZM399.541 145.113L394.844 149.81H349.798V100.067H399.541V145.113ZM0.174739 100.067H49.9171V149.81H0.174739V100.067ZM99.8634 100.067H50.121V149.81H99.8634V100.067ZM100.067 100.067H149.81V149.81H100.067V100.067ZM299.648 100.067H249.906V149.81H299.648V100.067ZM299.852 100.067H349.595V149.81H299.852V100.067ZM0.174739 150.013H49.9171V199.756H0.174739V150.013ZM99.8634 150.013H50.121V199.756H86.1193L86.0546 199.691L86.1896 199.556L99.8634 185.882V150.013ZM99.8634 186.152L86.3246 199.691L86.3893 199.756H94.9048L94.8401 199.691L99.8634 194.668V186.152ZM100.067 194.464V185.949L100.126 185.89L113.928 199.691L113.863 199.756H105.348L105.412 199.691L100.126 194.405L100.067 194.464ZM100.067 204.918L100.126 204.977L105.144 199.96H113.659L100.126 213.493L100.067 213.434V204.918ZM95.1087 199.96L99.8634 204.715V213.23L86.5932 199.96H95.1087ZM86.3232 199.96H50.121V249.702H99.8634V213.5L86.3232 199.96ZM100.067 213.704V249.702H149.81V199.96H113.929L100.261 213.628L100.126 213.763L100.067 213.704ZM114.133 199.756H149.81V150.013H100.067V185.679L100.126 185.62L100.261 185.755L114.063 199.556L114.198 199.691L114.133 199.756ZM199.756 150.013H150.013V199.756H199.756V150.013ZM199.96 150.013H249.702V199.756H199.96V150.013ZM299.648 150.013H249.906V199.756H299.648V150.013ZM299.852 150.013H349.595V199.756H299.852V150.013ZM499.434 150.013H449.691V199.756H499.434V150.013ZM0.174739 199.96H49.9171V249.702H0.174739V199.96ZM199.756 199.96H150.013V249.702H199.756V199.96ZM199.96 199.96H249.702V249.702H199.96V199.96ZM299.648 199.96H249.906V249.702H299.648V199.96ZM299.852 199.96H349.595V249.702H299.852V199.96ZM399.541 199.96H349.798V249.702H399.541V199.96ZM399.745 199.96H449.487V249.702H399.745V199.96ZM499.434 199.96H449.691V249.702H499.434V199.96ZM0.174739 249.906H49.9171V299.648H0.174739V249.906ZM99.8634 249.906H50.121V299.648H99.8634V249.906ZM100.067 249.906H149.81V299.648H100.067V249.906ZM199.756 249.906H150.013V299.648H199.756V249.906ZM199.96 249.906H249.702V299.648H199.96V249.906ZM299.648 249.906H249.906V299.648H299.648V249.906ZM299.852 249.906H349.595V299.648H299.852V249.906ZM399.541 249.906H349.798V299.648H399.541V249.906ZM399.745 249.906H449.487V299.648H399.745V249.906ZM499.433 249.906H449.691V299.648H499.433V249.906Z"/>
</mask>
<path fill-rule="evenodd" clip-rule="evenodd" d="M49.9171 0.174739H0.174739V49.9171H44.7638L49.9171 44.7638V0.174739ZM55.2079 49.9171L50.121 44.8303V0.174739H99.8634V49.9171H55.2079ZM50.121 55.1321L55.1321 50.121H99.8634V99.8634H50.121V55.1321ZM44.8396 50.121L49.9171 55.1986V99.8634H0.174739V50.121H44.8396ZM0 0V49.9463V50.0919V99.8924V100.038V149.839V149.984V199.785V199.931V249.731V249.877V299.823H49.9463H50.0919H99.8924H100.038H149.839H149.984H199.785H199.931H249.731H249.877H299.677H299.823H349.624H349.769H399.57H399.716H449.516H449.662H499.608L499.608 249.877V199.931V199.785V149.839V100.038V50.0919V49.9463V0H449.662H449.516H399.716H399.57H349.769H349.624H299.823H299.677H249.877H249.731H199.931H199.785H149.984H149.839H100.038H99.8924H50.0919H49.9463H0ZM100.067 0.174739H149.81V49.9171H100.067V0.174739ZM199.756 0.174739H150.013V49.9171H199.756V0.174739ZM199.96 0.174739H249.702V49.9171H199.96V0.174739ZM299.648 0.174739H249.906V49.9171H299.648V0.174739ZM299.852 0.174739H349.595V49.9171H299.852V0.174739ZM399.541 0.174739H349.798V49.9171H399.541V0.174739ZM399.745 0.174739H449.487V49.9171H399.745V0.174739ZM499.434 0.174739H449.691V49.9171H499.434V0.174739ZM100.067 50.121H149.81V99.8634H100.067V50.121ZM199.756 50.121H150.013V99.8634H194.752L199.756 94.86V50.121ZM204.883 99.8634L199.96 94.9401V50.121H249.702V99.8634H204.883ZM199.96 105.228L205.104 100.084L205.087 100.067H249.702V149.81H199.96V105.228ZM194.549 100.067L194.532 100.084L199.756 105.308V149.81H150.013V100.067H194.549ZM299.648 50.121H249.906V99.8634H299.648V50.121ZM299.852 50.121H349.595V99.8634H299.852V50.121ZM399.541 50.121H349.798V99.8634H399.541V50.121ZM399.745 50.121H449.487V86.0633L449.403 86.1477L435.687 99.8634H399.745V50.121ZM435.483 100.067H399.745V144.909L399.912 144.742L404.979 149.81H449.487V114.105L449.403 114.021L435.601 100.219L435.466 100.084L435.483 100.067ZM449.487 113.835L435.736 100.084L435.753 100.067H444.269L444.252 100.084L449.487 105.32V113.835ZM449.691 114.002V149.81H499.433V100.067H463.592L463.609 100.084L463.474 100.219L449.691 114.002ZM463.322 100.067L463.339 100.084L449.691 113.732V105.217L454.824 100.084L454.807 100.067H463.322ZM463.388 99.8634H499.434V50.121H449.691V86.1662L463.388 99.8634ZM449.691 86.4362L463.118 99.8634H454.603L449.691 94.9515V86.4362ZM449.487 86.3332L435.957 99.8634H444.472L449.487 94.8488V86.3332ZM399.745 155.147L399.912 155.314L405.198 150.028L405.183 150.013H449.487V199.756H399.745V155.147ZM394.64 150.013L394.626 150.028L399.541 154.943V199.756H349.798V150.013H394.64ZM399.541 145.113L394.844 149.81H349.798V100.067H399.541V145.113ZM0.174739 100.067H49.9171V149.81H0.174739V100.067ZM99.8634 100.067H50.121V149.81H99.8634V100.067ZM100.067 100.067H149.81V149.81H100.067V100.067ZM299.648 100.067H249.906V149.81H299.648V100.067ZM299.852 100.067H349.595V149.81H299.852V100.067ZM0.174739 150.013H49.9171V199.756H0.174739V150.013ZM99.8634 150.013H50.121V199.756H86.1193L86.0546 199.691L86.1896 199.556L99.8634 185.882V150.013ZM99.8634 186.152L86.3246 199.691L86.3893 199.756H94.9048L94.8401 199.691L99.8634 194.668V186.152ZM100.067 194.464V185.949L100.126 185.89L113.928 199.691L113.863 199.756H105.348L105.412 199.691L100.126 194.405L100.067 194.464ZM100.067 204.918L100.126 204.977L105.144 199.96H113.659L100.126 213.493L100.067 213.434V204.918ZM95.1087 199.96L99.8634 204.715V213.23L86.5932 199.96H95.1087ZM86.3232 199.96H50.121V249.702H99.8634V213.5L86.3232 199.96ZM100.067 213.704V249.702H149.81V199.96H113.929L100.261 213.628L100.126 213.763L100.067 213.704ZM114.133 199.756H149.81V150.013H100.067V185.679L100.126 185.62L100.261 185.755L114.063 199.556L114.198 199.691L114.133 199.756ZM199.756 150.013H150.013V199.756H199.756V150.013ZM199.96 150.013H249.702V199.756H199.96V150.013ZM299.648 150.013H249.906V199.756H299.648V150.013ZM299.852 150.013H349.595V199.756H299.852V150.013ZM499.434 150.013H449.691V199.756H499.434V150.013ZM0.174739 199.96H49.9171V249.702H0.174739V199.96ZM199.756 199.96H150.013V249.702H199.756V199.96ZM199.96 199.96H249.702V249.702H199.96V199.96ZM299.648 199.96H249.906V249.702H299.648V199.96ZM299.852 199.96H349.595V249.702H299.852V199.96ZM399.541 199.96H349.798V249.702H399.541V199.96ZM399.745 199.96H449.487V249.702H399.745V199.96ZM499.434 199.96H449.691V249.702H499.434V199.96ZM0.174739 249.906H49.9171V299.648H0.174739V249.906ZM99.8634 249.906H50.121V299.648H99.8634V249.906ZM100.067 249.906H149.81V299.648H100.067V249.906ZM199.756 249.906H150.013V299.648H199.756V249.906ZM199.96 249.906H249.702V299.648H199.96V249.906ZM299.648 249.906H249.906V299.648H299.648V249.906ZM299.852 249.906H349.595V299.648H299.852V249.906ZM399.541 249.906H349.798V299.648H399.541V249.906ZM399.745 249.906H449.487V299.648H399.745V249.906ZM499.433 249.906H449.691V299.648H499.433V249.906Z" fill="url(#paint0_radial_4891_14962)" fill-opacity="0.6" stroke="url(#paint1_radial_4891_14962)" stroke-width="3.63792" mask="url(#path-1-inside-1_4891_14962)"/>
<defs>
<radialGradient id="paint0_radial_4891_14962" cx="0" cy="0" r="1" gradientUnits="userSpaceOnUse" gradientTransform="translate(249.804 -168.283) rotate(90) scale(430.329 717.076)">
<stop stop-color="#FED402"/>
<stop offset="1" stop-color="#FED402" stop-opacity="0"/>
</radialGradient>
<radialGradient id="paint1_radial_4891_14962" cx="0" cy="0" r="1" gradientUnits="userSpaceOnUse" gradientTransform="translate(249.804 149.912) rotate(90) scale(149.912 249.804)">
<stop stop-color="#FED402"/>
<stop offset="1" stop-color="#FED402" stop-opacity="0"/>
</radialGradient>
</defs>
</svg>
