<svg width="56" height="56" viewBox="0 0 56 56" fill="none" xmlns="http://www.w3.org/2000/svg">
<path d="M24.498 32.6673C25.2599 31.1437 26.3148 30.334 27.998 30.334C29.7004 30.334 31.498 31.3975 31.498 33.2507C31.498 34.8616 30.1923 36.1673 28.5814 36.1673C30.1923 36.1673 31.498 37.4731 31.498 39.084C31.498 40.9371 29.7004 42.0007 27.998 42.0007C26.3148 42.0007 25.2599 41.191 24.498 39.6673" stroke="#FF4D4F" stroke-width="3.5" stroke-linecap="round" stroke-linejoin="round"/>
<path d="M28.0007 51.3333C36.377 51.3333 43.1673 44.543 43.1673 36.1667C43.1673 27.7903 36.377 21 28.0007 21C19.6243 21 12.834 27.7903 12.834 36.1667C12.834 44.543 19.6243 51.3333 28.0007 51.3333Z" stroke="#FF4D4F" stroke-width="3.5"/>
<path d="M21.0007 22.166L12.834 4.66602" stroke="#FF4D4F" stroke-width="3.5" stroke-linecap="round" stroke-linejoin="round"/>
<path d="M34.998 22.166L43.1647 4.66602" stroke="#FF4D4F" stroke-width="3.5" stroke-linecap="round" stroke-linejoin="round"/>
<path d="M34.9954 4.66602L32.6621 10.4993" stroke="#FF4D4F" stroke-width="3.5" stroke-linecap="round" stroke-linejoin="round"/>
<path d="M29.1621 20.9994L22.1621 4.66602" stroke="#FF4D4F" stroke-width="3.5" stroke-linecap="round" stroke-linejoin="round"/>
</svg>
