<svg width="56" height="56" viewBox="0 0 56 56" fill="none" xmlns="http://www.w3.org/2000/svg">
<path d="M24.498 32.6673L25.7359 31.3338C27.1884 29.865 29.5905 30.0377 30.823 31.6995C31.7857 32.998 31.7115 34.8023 30.6454 36.0154L24.498 42.0007H31.3382" stroke="#20E070" stroke-width="3.5" stroke-linecap="round" stroke-linejoin="round"/>
<path d="M28.0007 51.3333C36.377 51.3333 43.1673 44.543 43.1673 36.1667C43.1673 27.7903 36.377 21 28.0007 21C19.6243 21 12.834 27.7903 12.834 36.1667C12.834 44.543 19.6243 51.3333 28.0007 51.3333Z" stroke="#20E070" stroke-width="3.5"/>
<path d="M21.0007 22.166L12.834 4.66602" stroke="#20E070" stroke-width="3.5" stroke-linecap="round" stroke-linejoin="round"/>
<path d="M34.998 22.166L43.1647 4.66602" stroke="#20E070" stroke-width="3.5" stroke-linecap="round" stroke-linejoin="round"/>
<path d="M34.9954 4.66602L32.6621 10.4993" stroke="#20E070" stroke-width="3.5" stroke-linecap="round" stroke-linejoin="round"/>
<path d="M29.1621 20.9994L22.1621 4.66602" stroke="#20E070" stroke-width="3.5" stroke-linecap="round" stroke-linejoin="round"/>
</svg>
