<svg width="42" height="41" viewBox="0 0 42 41" fill="none" xmlns="http://www.w3.org/2000/svg">
<path d="M24.2534 30.8493C31.5434 30.8493 37.453 24.7499 37.453 17.2259C37.453 9.70193 31.5434 3.60254 24.2534 3.60254C16.9634 3.60254 11.0537 9.70193 11.0537 17.2259C11.0537 24.7499 16.9634 30.8493 24.2534 30.8493Z" stroke="#FCD404" stroke-width="2.51434" stroke-linecap="round" stroke-linejoin="round"/>
<path d="M6.36142 18.9277C5.15474 20.8309 4.45312 23.1059 4.45312 25.5501C4.45312 32.2381 9.70622 37.6599 16.1862 37.6599C18.5545 37.6599 20.7587 36.9358 22.6026 35.6903" stroke="#FCD404" stroke-width="2.51434" stroke-linecap="round" stroke-linejoin="round"/>
<path d="M24.254 12.118C22.4315 12.118 20.9541 13.2616 20.9541 14.6723C20.9541 16.0831 22.4315 17.2267 24.254 17.2267C26.0766 17.2267 27.5539 18.3704 27.5539 19.7811C27.5539 21.1918 26.0766 22.3355 24.254 22.3355M24.254 12.118C25.6908 12.118 26.9131 12.8288 27.3662 13.8209M24.254 12.118V10.415M24.254 22.3355C22.8172 22.3355 21.5949 21.6247 21.1419 20.6326M24.254 22.3355V24.0384" stroke="#FCD404" stroke-width="2.51434" stroke-linecap="round" stroke-linejoin="round"/>
</svg>
