<svg width="20" height="20" viewBox="0 0 20 20" fill="none" xmlns="http://www.w3.org/2000/svg">
<path fill-rule="evenodd" clip-rule="evenodd" d="M3.33366 12.7083C2.06801 12.7083 1.04199 13.7343 1.04199 14.9999C1.04199 16.2656 2.06801 17.2916 3.33366 17.2916C4.07322 17.2916 4.64932 16.8043 4.99374 16.3879C4.99594 16.3853 4.99813 16.3826 5.00033 16.3799C5.00252 16.3826 5.00471 16.3853 5.00691 16.3879C5.35133 16.8043 5.92743 17.2916 6.66699 17.2916C7.93264 17.2916 8.95866 16.2656 8.95866 14.9999C8.95866 13.7343 7.93264 12.7083 6.66699 12.7083C5.92743 12.7083 5.35133 13.1956 5.00691 13.6119C5.00471 13.6146 5.00252 13.6173 5.00033 13.6199C4.99813 13.6173 4.99594 13.6146 4.99374 13.6119C4.64932 13.1956 4.07322 12.7083 3.33366 12.7083ZM2.29199 14.9999C2.29199 14.4246 2.75836 13.9583 3.33366 13.9583C3.51458 13.9583 3.77181 14.0959 4.0306 14.4088C4.14905 14.5519 4.24355 14.7043 4.30585 14.8341C4.34819 14.9223 4.36478 14.9772 4.37124 14.9999C4.36478 15.0227 4.34819 15.0775 4.30585 15.1658C4.24355 15.2956 4.14905 15.4479 4.0306 15.5911C3.77181 15.9039 3.51458 16.0416 3.33366 16.0416C2.75836 16.0416 2.29199 15.5753 2.29199 14.9999ZM7.70866 14.9999C7.70866 14.4246 7.24229 13.9583 6.66699 13.9583C6.48608 13.9583 6.22884 14.0959 5.97005 14.4088C5.8516 14.5519 5.75709 14.7043 5.6948 14.8341C5.65246 14.9223 5.63588 14.9772 5.62941 14.9999C5.63588 15.0227 5.65246 15.0775 5.6948 15.1658C5.75709 15.2956 5.8516 15.4479 5.97005 15.5911C6.22884 15.9039 6.48608 16.0416 6.66699 16.0416C7.24229 16.0416 7.70866 15.5753 7.70866 14.9999Z" fill="#FCD404"/>
<path fill-rule="evenodd" clip-rule="evenodd" d="M1.85218 2.70825C1.6373 2.70825 1.43123 2.78048 1.27929 2.90904C1.12735 3.0376 1.04199 3.21198 1.04199 3.39379L1.042 6.25789L1.04199 6.2606L1.04201 12.2995C1.65969 11.7748 2.45971 11.4583 3.33366 11.4583C3.99757 11.4583 4.55588 11.6772 5.00033 11.9603C5.44478 11.6772 6.00308 11.4583 6.66699 11.4583C8.62299 11.4583 10.2087 13.0439 10.2087 14.9999C10.2087 15.8739 9.89208 16.6739 9.36741 17.2916H18.3337C18.6788 17.2916 18.9587 17.0405 18.9587 16.7307V6.2606C18.9587 5.95083 18.6788 5.6997 18.3337 5.6997H15.6253V3.39379C15.6253 3.01518 15.2626 2.70825 14.8152 2.70825H1.85218ZM14.005 5.6997V4.07933H2.66237V5.6997H14.005ZM15.417 12.9166C14.7267 12.9166 14.167 12.3569 14.167 11.6666C14.167 10.9763 14.7267 10.4166 15.417 10.4166C16.1073 10.4166 16.667 10.9763 16.667 11.6666C16.667 12.3569 16.1073 12.9166 15.417 12.9166Z" fill="#FCD404"/>
</svg>
