<svg width="201" height="46" viewBox="0 0 201 46" fill="none" xmlns="http://www.w3.org/2000/svg">
<path d="M41.4607 0H1.7876V12.4083H41.4607V0Z" fill="#FED402"/>
<path d="M43.2515 21.0838L4.65869 9.18164L6.74839e-05 24.2872L38.5928 36.1894L43.2515 21.0838Z" fill="#FED402"/>
<path d="M41.4607 32.9658H1.7876V45.3741H41.4607V32.9658Z" fill="#FED402"/>
<path d="M49.312 31.0344L52.4195 27.3379C55.2352 29.7752 58.0454 31.1587 61.6987 31.1587C64.8927 31.1587 66.9031 29.6887 66.9031 27.4622V27.3757C66.9031 25.2788 65.7249 24.1439 60.2666 22.8847C54.0084 21.3715 50.4848 19.5232 50.4848 14.1081V14.0216C50.4848 8.98481 54.6839 5.49902 60.5206 5.49902C64.8062 5.49902 68.2055 6.80146 71.1833 9.19557L68.4109 13.1029C65.7682 11.1303 63.1201 10.0819 60.4341 10.0819C57.4131 10.0819 55.6459 11.6329 55.6459 13.5677V13.6541C55.6459 15.9239 56.9916 16.9291 62.6175 18.2748C68.8324 19.788 72.0642 22.0146 72.0642 26.8839V26.9704C72.0642 32.472 67.7408 35.747 61.569 35.747C57.078 35.747 52.8357 34.1959 49.3066 31.0452L49.312 31.0344Z" fill="white"/>
<path d="M75.4639 13.143H80.5439V16.8395C82.1814 14.5319 84.4891 12.6836 88.0613 12.6836C93.3089 12.6836 98.389 16.8395 98.389 24.1894V24.2758C98.389 31.6257 93.3521 35.7816 88.0613 35.7816C84.408 35.7816 82.1004 33.9334 80.5439 31.8743V42.0344H75.4639V13.143ZM93.2278 24.2704V24.184C93.2278 19.8984 90.3311 17.0881 86.8886 17.0881C83.446 17.0881 80.4196 19.9416 80.4196 24.184V24.2704C80.4196 28.5507 83.4406 31.3663 86.8886 31.3663C90.3365 31.3663 93.2278 28.6371 93.2278 24.2704Z" fill="white"/>
<path d="M101.807 4.66602H106.887V35.3193H101.807V4.66602Z" fill="white"/>
<path d="M110.198 24.3162V24.2297C110.198 17.8904 114.689 12.6807 121.033 12.6807C128.086 12.6807 131.658 18.2255 131.658 24.608C131.658 25.0674 131.615 25.5321 131.572 26.0347H115.278C115.824 29.6448 118.385 31.6606 121.66 31.6606C124.135 31.6606 125.903 30.7365 127.664 29.0125L130.648 31.6606C128.551 34.179 125.649 35.8165 121.579 35.8165C115.154 35.8165 110.198 31.158 110.198 24.3107V24.3162ZM126.616 22.6786C126.281 19.4036 124.346 16.842 120.99 16.842C117.883 16.842 115.699 19.2361 115.24 22.6786H126.621H126.616Z" fill="white"/>
<path d="M134.686 13.1454H139.766V16.588C141.193 14.4911 143.252 12.6807 146.694 12.6807C151.693 12.6807 154.59 16.0421 154.59 21.2033V35.3139H149.51V22.7165C149.51 19.2739 147.786 17.3014 144.765 17.3014C141.744 17.3014 139.766 19.3604 139.766 22.8029V35.3139H134.686V13.1454Z" fill="white"/>
<path d="M157.391 24.3162V24.2297C157.391 17.8904 161.882 12.6807 168.227 12.6807C175.279 12.6807 178.852 18.2255 178.852 24.608C178.852 25.0674 178.808 25.5321 178.765 26.0347H162.471C163.017 29.6448 165.579 31.6606 168.854 31.6606C171.329 31.6606 173.096 30.7365 174.858 29.0125L177.841 31.6606C175.744 34.179 172.842 35.8165 168.773 35.8165C162.347 35.8165 157.391 31.158 157.391 24.3107V24.3162ZM173.809 22.6786C173.474 19.4036 171.54 16.842 168.184 16.842C165.076 16.842 162.893 19.2361 162.433 22.6786H173.815H173.809Z" fill="white"/>
<path d="M186.841 24.0681L178.988 13.1514H184.533L189.656 20.458L194.78 13.1514H200.195L192.342 23.9438L200.53 35.3253H194.985L189.527 27.5593L184.111 35.3253H178.696L186.841 24.0735V24.0681Z" fill="white"/>
<path d="M92.6291 41.6733C92.748 41.8408 92.8075 42.0462 92.8075 42.2948C92.8075 42.7812 92.6183 43.1541 92.2454 43.4135C91.8725 43.6729 91.3591 43.8026 90.7106 43.8026H88.3867L89.3541 38.9766H91.4942C91.9806 38.9766 92.3589 39.0684 92.6237 39.2468C92.8885 39.4305 93.0182 39.6899 93.0182 40.0358C93.0182 40.3493 92.9372 40.6141 92.775 40.8302C92.6129 41.0464 92.3967 41.2085 92.1319 41.3112C92.3481 41.3869 92.5156 41.5058 92.6345 41.6679L92.6291 41.6733ZM91.7698 42.9974C92.0076 42.8352 92.1265 42.6029 92.1265 42.3002C92.1265 42.0624 92.04 41.8895 91.8725 41.7922C91.705 41.6895 91.451 41.6409 91.1159 41.6409H89.5L89.1812 43.246H90.7538C91.1916 43.246 91.5266 43.1649 91.7644 43.0028L91.7698 42.9974ZM89.927 39.5332L89.6189 41.0788H91.0348C91.4239 41.0788 91.732 40.9978 91.9644 40.841C92.1914 40.6843 92.3048 40.4519 92.3048 40.1493C92.3048 39.9439 92.2238 39.7872 92.0617 39.6899C91.8995 39.5872 91.6617 39.5386 91.3537 39.5386H89.9324L89.927 39.5332Z" fill="white"/>
<path d="M94.3243 43.6477C94.0649 43.518 93.865 43.3343 93.7245 43.0911C93.584 42.8533 93.5083 42.5776 93.5083 42.2642C93.5083 41.8535 93.6002 41.486 93.7839 41.1617C93.9677 40.8375 94.2217 40.5781 94.5513 40.3943C94.881 40.2106 95.2431 40.1133 95.6538 40.1133C95.9997 40.1133 96.3023 40.1781 96.5563 40.3078C96.8157 40.4375 97.0103 40.6213 97.1508 40.8537C97.2913 41.0915 97.3616 41.3671 97.3616 41.6859C97.3616 42.0967 97.2697 42.4642 97.086 42.7938C96.9022 43.1235 96.6482 43.3775 96.3239 43.5666C95.9997 43.7504 95.6322 43.8477 95.2215 43.8477C94.8756 43.8477 94.5784 43.7828 94.3189 43.6531L94.3243 43.6477ZM95.9997 43.0694C96.2159 42.9397 96.3888 42.756 96.5077 42.5236C96.6266 42.2912 96.6914 42.021 96.6914 41.7238C96.6914 41.3995 96.5996 41.1455 96.4104 40.9672C96.2213 40.7888 95.951 40.6969 95.6052 40.6969C95.335 40.6969 95.0918 40.7618 94.8756 40.8915C94.6594 41.0212 94.4919 41.205 94.3676 41.4373C94.2433 41.6697 94.1838 41.9399 94.1838 42.2372C94.1838 42.556 94.2811 42.81 94.4703 42.9938C94.6594 43.1775 94.9296 43.264 95.2755 43.264C95.5457 43.264 95.7889 43.1991 96.0105 43.0694H95.9997Z" fill="white"/>
<path d="M99.7551 40.2542C99.9874 40.1624 100.274 40.1191 100.609 40.1191L100.485 40.7623C100.441 40.7623 100.387 40.7568 100.312 40.7568C99.5551 40.7568 99.0957 41.1676 98.9336 41.9836L98.5661 43.8103H97.9014L98.6256 40.157H99.2579L99.1552 40.7028C99.3173 40.5028 99.5119 40.3515 99.7496 40.2596L99.7551 40.2542Z" fill="white"/>
<path d="M105.108 38.6836L104.086 43.8015H103.454L103.546 43.3529C103.378 43.5096 103.189 43.6285 102.967 43.715C102.751 43.8015 102.513 43.8447 102.254 43.8447C101.941 43.8447 101.665 43.7799 101.422 43.6556C101.179 43.5313 100.989 43.3475 100.849 43.1097C100.714 42.8719 100.644 42.5909 100.644 42.2667C100.644 41.8505 100.735 41.483 100.914 41.1588C101.092 40.8345 101.341 40.5751 101.654 40.3914C101.968 40.2076 102.324 40.1157 102.713 40.1157C103.027 40.1157 103.297 40.1698 103.524 40.2833C103.751 40.3968 103.924 40.5589 104.037 40.7751L104.454 38.6836H105.113H105.108ZM103.13 43.0665C103.346 42.9368 103.519 42.753 103.638 42.5207C103.756 42.2883 103.821 42.0181 103.821 41.7208C103.821 41.3966 103.729 41.1426 103.54 40.9642C103.351 40.7859 103.081 40.694 102.735 40.694C102.465 40.694 102.222 40.7589 102.005 40.8886C101.789 41.0183 101.622 41.202 101.497 41.4344C101.373 41.6668 101.314 41.937 101.314 42.2342C101.314 42.5531 101.411 42.8071 101.6 42.9908C101.789 43.1746 102.059 43.261 102.405 43.261C102.676 43.261 102.919 43.1962 103.14 43.0665H103.13Z" fill="white"/>
<path d="M105.983 42.1817V42.2249C105.983 42.5654 106.08 42.8248 106.275 43.0032C106.469 43.1815 106.756 43.268 107.145 43.268C107.372 43.268 107.583 43.2301 107.777 43.1545C107.977 43.0788 108.139 42.9761 108.274 42.8464L108.555 43.322C108.377 43.4895 108.155 43.6138 107.901 43.7057C107.647 43.7976 107.372 43.8408 107.091 43.8408C106.734 43.8408 106.421 43.776 106.161 43.6463C105.902 43.5166 105.697 43.3328 105.556 43.095C105.416 42.8572 105.34 42.5762 105.34 42.252C105.34 41.8412 105.426 41.4737 105.605 41.1495C105.783 40.8252 106.026 40.5658 106.345 40.3821C106.658 40.1983 107.015 40.1064 107.404 40.1064C107.901 40.1064 108.296 40.247 108.593 40.528C108.89 40.809 109.036 41.1981 109.036 41.6845C109.036 41.8304 109.02 41.9926 108.988 42.1763H105.988L105.983 42.1817ZM106.529 40.9441C106.296 41.1279 106.134 41.3819 106.053 41.7007H108.409C108.426 41.3765 108.339 41.1225 108.15 40.9387C107.961 40.755 107.696 40.6685 107.366 40.6685C107.037 40.6685 106.761 40.7604 106.523 40.9441H106.529Z" fill="white"/>
<path d="M111.411 40.2542C111.644 40.1624 111.93 40.1191 112.265 40.1191L112.141 40.7623C112.098 40.7623 112.044 40.7568 111.968 40.7568C111.211 40.7568 110.752 41.1676 110.59 41.9836L110.222 43.8103H109.558L110.282 40.157H110.914L110.811 40.7028C110.974 40.5028 111.168 40.3515 111.406 40.2596L111.411 40.2542Z" fill="white"/>
<path d="M113.369 38.6836H114.028L113.007 43.8015H112.342L113.364 38.6836H113.369Z" fill="white"/>
<path d="M114.902 42.1817V42.2249C114.902 42.5654 114.999 42.8248 115.194 43.0032C115.388 43.1815 115.675 43.268 116.064 43.268C116.291 43.268 116.502 43.2301 116.696 43.1545C116.896 43.0788 117.058 42.9761 117.193 42.8464L117.474 43.322C117.296 43.4895 117.074 43.6138 116.82 43.7057C116.566 43.7976 116.291 43.8408 116.01 43.8408C115.653 43.8408 115.34 43.776 115.08 43.6463C114.821 43.5166 114.615 43.3328 114.475 43.095C114.334 42.8572 114.259 42.5762 114.259 42.252C114.259 41.8412 114.345 41.4737 114.524 41.1495C114.702 40.8252 114.945 40.5658 115.264 40.3821C115.577 40.1983 115.934 40.1064 116.323 40.1064C116.82 40.1064 117.215 40.247 117.512 40.528C117.809 40.809 117.955 41.1981 117.955 41.6845C117.955 41.8304 117.939 41.9926 117.907 42.1763H114.907L114.902 42.1817ZM115.448 40.9441C115.215 41.1279 115.053 41.3819 114.972 41.7007H117.328C117.345 41.3765 117.258 41.1225 117.069 40.9387C116.88 40.755 116.615 40.6685 116.285 40.6685C115.956 40.6685 115.68 40.7604 115.442 40.9441H115.448Z" fill="white"/>
<path d="M118.758 43.7288C118.483 43.6531 118.272 43.5504 118.121 43.4261L118.418 42.9019C118.558 43.0154 118.748 43.1073 118.974 43.1721C119.201 43.237 119.439 43.2694 119.688 43.2694C120.001 43.2694 120.239 43.2208 120.401 43.1289C120.563 43.037 120.644 42.9019 120.644 42.7344C120.644 42.5993 120.58 42.4966 120.45 42.4371C120.32 42.3777 120.115 42.3182 119.839 42.2588C119.58 42.2048 119.369 42.1453 119.207 42.0913C119.045 42.0372 118.904 41.9399 118.791 41.8156C118.677 41.6913 118.618 41.5184 118.618 41.3022C118.618 41.0644 118.683 40.8537 118.823 40.6753C118.964 40.497 119.153 40.3565 119.401 40.2592C119.65 40.1619 119.942 40.1133 120.272 40.1133C120.515 40.1133 120.753 40.1457 120.979 40.2052C121.206 40.2646 121.396 40.3457 121.547 40.4483L121.282 40.9726C121.142 40.8753 120.974 40.805 120.785 40.7564C120.596 40.7078 120.401 40.6861 120.207 40.6861C119.909 40.6861 119.677 40.7348 119.515 40.8321C119.353 40.9293 119.272 41.0644 119.272 41.2266C119.272 41.3725 119.337 41.4806 119.472 41.54C119.607 41.5995 119.812 41.6643 120.093 41.7238C120.347 41.7778 120.553 41.8319 120.715 41.8913C120.877 41.9453 121.012 42.0372 121.125 42.1615C121.239 42.2858 121.293 42.4533 121.293 42.6641C121.293 43.037 121.142 43.3288 120.834 43.5342C120.526 43.7396 120.12 43.8477 119.618 43.8477C119.315 43.8477 119.029 43.8098 118.753 43.7288H118.758Z" fill="white"/>
<path d="M122.21 43.7288C121.934 43.6531 121.724 43.5504 121.572 43.4261L121.87 42.9019C122.01 43.0154 122.199 43.1073 122.426 43.1721C122.653 43.237 122.891 43.2694 123.14 43.2694C123.453 43.2694 123.691 43.2208 123.853 43.1289C124.015 43.037 124.096 42.9019 124.096 42.7344C124.096 42.5993 124.031 42.4966 123.902 42.4371C123.772 42.3777 123.566 42.3182 123.291 42.2588C123.031 42.2048 122.821 42.1453 122.659 42.0913C122.496 42.0372 122.356 41.9399 122.242 41.8156C122.129 41.6913 122.069 41.5184 122.069 41.3022C122.069 41.0644 122.134 40.8537 122.275 40.6753C122.415 40.497 122.604 40.3565 122.853 40.2592C123.102 40.1619 123.394 40.1133 123.723 40.1133C123.966 40.1133 124.204 40.1457 124.431 40.2052C124.658 40.2646 124.847 40.3457 124.999 40.4483L124.734 40.9726C124.593 40.8753 124.426 40.805 124.237 40.7564C124.047 40.7078 123.853 40.6861 123.658 40.6861C123.361 40.6861 123.129 40.7348 122.967 40.8321C122.804 40.9293 122.723 41.0644 122.723 41.2266C122.723 41.3725 122.788 41.4806 122.923 41.54C123.058 41.5995 123.264 41.6643 123.545 41.7238C123.799 41.7778 124.004 41.8319 124.166 41.8913C124.328 41.9453 124.464 42.0372 124.577 42.1615C124.691 42.2858 124.745 42.4533 124.745 42.6641C124.745 43.037 124.593 43.3288 124.285 43.5342C123.977 43.7396 123.572 43.8477 123.069 43.8477C122.767 43.8477 122.48 43.8098 122.205 43.7288H122.21Z" fill="white"/>
<path d="M128.214 42.6364C128.198 42.7067 128.193 42.7715 128.193 42.831C128.193 42.9769 128.231 43.0904 128.312 43.166C128.393 43.2417 128.512 43.2849 128.674 43.2849C128.868 43.2849 129.041 43.2255 129.198 43.112L129.333 43.6146C129.112 43.7659 128.831 43.8416 128.485 43.8416C128.193 43.8416 127.96 43.7605 127.788 43.5984C127.615 43.4362 127.523 43.2093 127.523 42.9282C127.523 42.831 127.534 42.7391 127.55 42.6526L127.944 40.6963H127.323L127.425 40.1504H128.052L128.209 39.3506H128.868L128.712 40.1504H129.76L129.652 40.6963H128.604L128.209 42.6418L128.214 42.6364Z" fill="white"/>
<path d="M131.951 40.2542C132.184 40.1624 132.47 40.1191 132.805 40.1191L132.681 40.7623C132.638 40.7623 132.584 40.7568 132.508 40.7568C131.751 40.7568 131.292 41.1676 131.13 41.9836L130.762 43.8103H130.098L130.822 40.157H131.454L131.351 40.7028C131.514 40.5028 131.708 40.3515 131.946 40.2596L131.951 40.2542Z" fill="white"/>
<path d="M136.993 40.1516L136.269 43.8049H135.637L135.729 43.3563C135.561 43.513 135.372 43.6319 135.151 43.7184C134.934 43.8049 134.697 43.8481 134.437 43.8481C134.124 43.8481 133.848 43.7833 133.605 43.659C133.362 43.5347 133.173 43.3509 133.032 43.1131C132.897 42.8753 132.827 42.5943 132.827 42.2701C132.827 41.8539 132.919 41.4864 133.097 41.1622C133.275 40.8379 133.524 40.5785 133.837 40.3948C134.151 40.211 134.507 40.1191 134.897 40.1191C135.21 40.1191 135.475 40.1732 135.702 40.2867C135.923 40.3948 136.096 40.5623 136.215 40.7785L136.339 40.157H136.999L136.993 40.1516ZM135.313 43.0699C135.529 42.9402 135.702 42.7564 135.821 42.5241C135.94 42.2917 136.004 42.0215 136.004 41.7242C136.004 41.4 135.913 41.146 135.723 40.9676C135.534 40.7893 135.264 40.6974 134.918 40.6974C134.648 40.6974 134.405 40.7623 134.189 40.892C133.972 41.0217 133.805 41.2054 133.681 41.4378C133.556 41.6702 133.497 41.9404 133.497 42.2376C133.497 42.5565 133.594 42.8105 133.783 42.9942C133.972 43.178 134.243 43.2645 134.588 43.2645C134.859 43.2645 135.102 43.1996 135.323 43.0699H135.313Z" fill="white"/>
<path d="M141.992 38.6836L140.971 43.8015H140.339L140.43 43.3529C140.263 43.5096 140.074 43.6285 139.852 43.715C139.636 43.8015 139.398 43.8447 139.139 43.8447C138.825 43.8447 138.55 43.7799 138.307 43.6556C138.063 43.5313 137.874 43.3475 137.734 43.1097C137.599 42.8719 137.528 42.5909 137.528 42.2667C137.528 41.8505 137.62 41.483 137.799 41.1588C137.977 40.8345 138.225 40.5751 138.539 40.3914C138.852 40.2076 139.209 40.1157 139.598 40.1157C139.912 40.1157 140.182 40.1698 140.409 40.2833C140.636 40.3968 140.809 40.5589 140.922 40.7751L141.338 38.6836H141.998H141.992ZM140.014 43.0665C140.23 42.9368 140.403 42.753 140.522 42.5207C140.641 42.2883 140.706 42.0181 140.706 41.7208C140.706 41.3966 140.614 41.1426 140.425 40.9642C140.236 40.7859 139.966 40.694 139.62 40.694C139.35 40.694 139.106 40.7589 138.89 40.8886C138.674 41.0183 138.506 41.202 138.382 41.4344C138.258 41.6668 138.198 41.937 138.198 42.2342C138.198 42.5531 138.296 42.8071 138.485 42.9908C138.674 43.1746 138.944 43.261 139.29 43.261C139.56 43.261 139.804 43.1962 140.025 43.0665H140.014Z" fill="white"/>
<path d="M142.96 40.1493H143.619L142.895 43.8026H142.23L142.954 40.1493H142.96ZM143.192 39.3278C143.116 39.2522 143.073 39.1549 143.073 39.0468C143.073 38.9171 143.116 38.809 143.208 38.7171C143.3 38.6253 143.414 38.582 143.549 38.582C143.668 38.582 143.77 38.6199 143.846 38.6955C143.927 38.7712 143.965 38.8631 143.965 38.9657C143.965 39.1062 143.922 39.2251 143.83 39.3116C143.738 39.3981 143.624 39.4413 143.484 39.4413C143.365 39.4413 143.268 39.4035 143.187 39.3224L143.192 39.3278Z" fill="white"/>
<path d="M147.729 40.4321C147.961 40.6429 148.075 40.9401 148.075 41.3293C148.075 41.4644 148.059 41.6049 148.032 41.7562L147.626 43.8044H146.967L147.372 41.7562C147.394 41.6319 147.405 41.5292 147.405 41.4535C147.405 41.2158 147.334 41.032 147.189 40.9023C147.043 40.7726 146.837 40.7078 146.556 40.7078C146.2 40.7078 145.902 40.805 145.67 40.9996C145.438 41.1941 145.281 41.486 145.205 41.8697L144.821 43.799H144.157L144.881 40.1457H145.513L145.421 40.6159C145.751 40.2808 146.194 40.1133 146.745 40.1133C147.162 40.1133 147.491 40.2214 147.724 40.4321H147.729Z" fill="white"/>
<path d="M153.105 40.1473L152.478 43.3034C152.348 43.9573 152.105 44.4329 151.748 44.7301C151.392 45.0274 150.905 45.1787 150.289 45.1787C149.943 45.1787 149.63 45.1355 149.343 45.0436C149.057 44.9517 148.819 44.8274 148.619 44.6599L148.987 44.1519C149.133 44.287 149.327 44.3897 149.565 44.4707C149.803 44.5518 150.062 44.5896 150.343 44.5896C150.765 44.5896 151.094 44.4923 151.327 44.2978C151.559 44.1032 151.716 43.806 151.797 43.4007L151.851 43.1413C151.5 43.4763 151.062 43.6439 150.527 43.6439C150.203 43.6439 149.922 43.5844 149.673 43.4655C149.424 43.3466 149.235 43.1737 149.1 42.9467C148.965 42.7197 148.895 42.4549 148.895 42.1523C148.895 41.7686 148.981 41.4227 149.16 41.1092C149.338 40.7958 149.581 40.5526 149.9 40.3688C150.219 40.1905 150.575 40.0986 150.975 40.0986C151.289 40.0986 151.564 40.1581 151.808 40.277C152.051 40.3959 152.229 40.5688 152.343 40.8066L152.472 40.1365H153.099L153.105 40.1473ZM151.397 42.8873C151.613 42.763 151.786 42.5954 151.905 42.3793C152.029 42.1631 152.089 41.9145 152.089 41.6389C152.089 41.347 151.991 41.1146 151.802 40.9471C151.613 40.7796 151.343 40.6931 150.997 40.6931C150.721 40.6931 150.473 40.7526 150.257 40.8769C150.04 41.0012 149.868 41.1687 149.749 41.3849C149.624 41.601 149.565 41.8496 149.565 42.1198C149.565 42.4171 149.662 42.6549 149.857 42.817C150.051 42.9845 150.316 43.071 150.657 43.071C150.932 43.071 151.181 43.0116 151.397 42.8873Z" fill="white"/>
<path d="M161.662 40.4267C161.894 40.6375 162.008 40.9347 162.008 41.3184C162.008 41.4265 161.992 41.567 161.959 41.7508L161.554 43.799H160.895L161.3 41.7508C161.321 41.6211 161.332 41.5184 161.332 41.4319C161.332 41.1941 161.267 41.0104 161.132 40.8861C160.997 40.7618 160.797 40.7023 160.527 40.7023C160.187 40.7023 159.906 40.7996 159.689 40.9888C159.473 41.1779 159.322 41.4644 159.246 41.8481L158.852 43.799H158.192L158.608 41.7508C158.63 41.6265 158.641 41.5238 158.641 41.4427C158.641 41.205 158.571 41.0212 158.436 40.8969C158.3 40.7726 158.095 40.7078 157.825 40.7078C157.484 40.7078 157.203 40.805 156.987 40.9996C156.771 41.1941 156.62 41.486 156.544 41.8751L156.16 43.8044H155.496L156.22 40.1511H156.852L156.76 40.6051C157.084 40.2808 157.506 40.1133 158.03 40.1133C158.317 40.1133 158.56 40.1673 158.76 40.2808C158.96 40.3889 159.111 40.551 159.203 40.7618C159.576 40.3295 160.073 40.1133 160.689 40.1133C161.105 40.1133 161.424 40.216 161.657 40.4267H161.662Z" fill="white"/>
<path d="M166.966 40.1516L166.242 43.8049H165.61L165.701 43.3563C165.534 43.513 165.345 43.6319 165.123 43.7184C164.907 43.8049 164.669 43.8481 164.41 43.8481C164.096 43.8481 163.821 43.7833 163.578 43.659C163.334 43.5347 163.145 43.3509 163.005 43.1131C162.87 42.8753 162.799 42.5943 162.799 42.2701C162.799 41.8539 162.891 41.4864 163.07 41.1622C163.248 40.8379 163.496 40.5785 163.81 40.3948C164.123 40.211 164.48 40.1191 164.869 40.1191C165.183 40.1191 165.447 40.1732 165.674 40.2867C165.896 40.3948 166.069 40.5623 166.188 40.7785L166.312 40.157H166.971L166.966 40.1516ZM165.291 43.0699C165.507 42.9402 165.68 42.7564 165.799 42.5241C165.918 42.2917 165.982 42.0215 165.982 41.7242C165.982 41.4 165.891 41.146 165.701 40.9676C165.512 40.7893 165.242 40.6974 164.896 40.6974C164.626 40.6974 164.383 40.7623 164.167 40.892C163.95 41.0217 163.783 41.2054 163.659 41.4378C163.534 41.6702 163.475 41.9404 163.475 42.2376C163.475 42.5565 163.572 42.8105 163.761 42.9942C163.95 43.178 164.221 43.2645 164.567 43.2645C164.837 43.2645 165.08 43.1996 165.302 43.0699H165.291Z" fill="white"/>
<path d="M169.354 40.2542C169.587 40.1624 169.873 40.1191 170.208 40.1191L170.084 40.7623C170.041 40.7623 169.986 40.7568 169.911 40.7568C169.154 40.7568 168.695 41.1676 168.533 41.9836L168.165 43.8103H167.5L168.225 40.157H168.857L168.754 40.7028C168.916 40.5028 169.111 40.3515 169.349 40.2596L169.354 40.2542Z" fill="white"/>
<path d="M172.548 41.683L173.85 43.8015H173.083L172.029 42.0775L171.132 42.7747L170.926 43.8015H170.262L171.283 38.6836H171.942L171.294 41.937L173.564 40.1428H174.493L172.542 41.6776L172.548 41.683Z" fill="white"/>
<path d="M174.944 42.1817V42.2249C174.944 42.5654 175.042 42.8248 175.236 43.0032C175.431 43.1815 175.717 43.268 176.106 43.268C176.333 43.268 176.544 43.2301 176.739 43.1545C176.939 43.0788 177.101 42.9761 177.236 42.8464L177.517 43.322C177.338 43.4895 177.117 43.6138 176.863 43.7057C176.609 43.7976 176.333 43.8408 176.052 43.8408C175.696 43.8408 175.382 43.776 175.123 43.6463C174.863 43.5166 174.658 43.3328 174.517 43.095C174.377 42.8572 174.301 42.5762 174.301 42.252C174.301 41.8412 174.388 41.4737 174.566 41.1495C174.744 40.8252 174.988 40.5658 175.306 40.3821C175.62 40.1983 175.977 40.1064 176.366 40.1064C176.863 40.1064 177.257 40.247 177.555 40.528C177.852 40.809 177.998 41.1981 177.998 41.6845C177.998 41.8304 177.982 41.9926 177.949 42.1763H174.95L174.944 42.1817ZM175.485 40.9441C175.252 41.1279 175.09 41.3819 175.009 41.7007H177.366C177.382 41.3765 177.295 41.1225 177.106 40.9387C176.917 40.755 176.652 40.6685 176.322 40.6685C175.993 40.6685 175.717 40.7604 175.479 40.9441H175.485Z" fill="white"/>
<path d="M179.502 42.6364C179.486 42.7067 179.48 42.7715 179.48 42.831C179.48 42.9769 179.518 43.0904 179.599 43.166C179.68 43.2417 179.799 43.2849 179.961 43.2849C180.156 43.2849 180.329 43.2255 180.486 43.112L180.621 43.6146C180.399 43.7659 180.118 43.8416 179.772 43.8416C179.48 43.8416 179.248 43.7605 179.075 43.5984C178.902 43.4362 178.81 43.2093 178.81 42.9282C178.81 42.831 178.821 42.7391 178.837 42.6526L179.232 40.6963H178.61L178.713 40.1504H179.34L179.497 39.3506H180.156L179.999 40.1504H181.048L180.94 40.6963H179.891L179.497 42.6418L179.502 42.6364Z" fill="white"/>
<path d="M184.765 40.301C185.008 40.4253 185.197 40.609 185.338 40.8468C185.473 41.0846 185.543 41.3656 185.543 41.6845C185.543 42.1006 185.451 42.4681 185.273 42.7924C185.094 43.1166 184.846 43.3761 184.532 43.5598C184.219 43.7435 183.862 43.8408 183.473 43.8408C183.16 43.8408 182.889 43.7868 182.668 43.6733C182.441 43.5598 182.268 43.3977 182.149 43.1815L181.765 45.1379H181.106L182.1 40.1443H182.733L182.641 40.5982C182.981 40.274 183.408 40.1064 183.932 40.1064C184.246 40.1064 184.521 40.1713 184.765 40.2956V40.301ZM184.181 43.068C184.397 42.9383 184.565 42.7546 184.689 42.5222C184.813 42.2898 184.873 42.0196 184.873 41.7223C184.873 41.3981 184.781 41.1441 184.592 40.9657C184.403 40.7874 184.132 40.6955 183.786 40.6955C183.516 40.6955 183.268 40.7604 183.052 40.8901C182.835 41.0198 182.662 41.2035 182.544 41.4359C182.419 41.6683 182.36 41.9385 182.36 42.2357C182.36 42.5546 182.457 42.8086 182.646 42.9924C182.835 43.1761 183.106 43.2626 183.451 43.2626C183.722 43.2626 183.965 43.1977 184.181 43.068Z" fill="white"/>
<path d="M187.1 38.6836H187.759L186.737 43.8015H186.073L187.094 38.6836H187.1Z" fill="white"/>
<path d="M192.167 40.1516L191.443 43.8049H190.81L190.902 43.3563C190.735 43.513 190.545 43.6319 190.324 43.7184C190.108 43.8049 189.87 43.8481 189.61 43.8481C189.297 43.8481 189.021 43.7833 188.778 43.659C188.535 43.5347 188.346 43.3509 188.205 43.1131C188.07 42.8753 188 42.5943 188 42.2701C188 41.8539 188.092 41.4864 188.27 41.1622C188.449 40.8379 188.697 40.5785 189.011 40.3948C189.324 40.211 189.681 40.1191 190.07 40.1191C190.383 40.1191 190.648 40.1732 190.875 40.2867C191.097 40.3948 191.27 40.5623 191.388 40.7785L191.513 40.157H192.172L192.167 40.1516ZM190.486 43.0699C190.702 42.9402 190.875 42.7564 190.994 42.5241C191.113 42.2917 191.178 42.0215 191.178 41.7242C191.178 41.4 191.086 41.146 190.897 40.9676C190.708 40.7893 190.437 40.6974 190.091 40.6974C189.821 40.6974 189.578 40.7623 189.362 40.892C189.146 41.0217 188.978 41.2054 188.854 41.4378C188.73 41.6702 188.67 41.9404 188.67 42.2376C188.67 42.5565 188.767 42.8105 188.957 42.9942C189.146 43.178 189.416 43.2645 189.762 43.2645C190.032 43.2645 190.275 43.1996 190.497 43.0699H190.486Z" fill="white"/>
<path d="M193.5 43.6477C193.24 43.518 193.035 43.3343 192.894 43.0965C192.754 42.8587 192.678 42.5831 192.678 42.2642C192.678 41.8535 192.77 41.486 192.954 41.1617C193.138 40.8375 193.392 40.5781 193.721 40.3943C194.051 40.2106 194.418 40.1133 194.829 40.1133C195.548 40.1133 196.051 40.3781 196.332 40.9077L195.775 41.2158C195.58 40.8645 195.251 40.6915 194.781 40.6915C194.51 40.6915 194.262 40.7564 194.046 40.8861C193.829 41.0158 193.656 41.1995 193.532 41.4319C193.408 41.6643 193.348 41.9345 193.348 42.2318C193.348 42.5506 193.446 42.8046 193.635 42.9884C193.824 43.1721 194.094 43.2586 194.445 43.2586C194.667 43.2586 194.872 43.2154 195.062 43.1289C195.251 43.0424 195.407 42.9127 195.532 42.7452L196.013 43.0911C195.845 43.3234 195.613 43.5072 195.332 43.6423C195.045 43.7774 194.743 43.8423 194.413 43.8423C194.062 43.8423 193.759 43.7774 193.494 43.6477H193.5Z" fill="white"/>
<path d="M197.23 42.1817V42.2249C197.23 42.5654 197.327 42.8248 197.522 43.0032C197.716 43.1815 198.003 43.268 198.392 43.268C198.619 43.268 198.83 43.2301 199.024 43.1545C199.224 43.0788 199.386 42.9761 199.521 42.8464L199.802 43.322C199.624 43.4895 199.403 43.6138 199.149 43.7057C198.895 43.7976 198.619 43.8408 198.338 43.8408C197.981 43.8408 197.668 43.776 197.408 43.6463C197.149 43.5166 196.944 43.3328 196.803 43.095C196.663 42.8572 196.587 42.5762 196.587 42.252C196.587 41.8412 196.673 41.4737 196.852 41.1495C197.03 40.8252 197.273 40.5658 197.592 40.3821C197.906 40.1983 198.262 40.1064 198.651 40.1064C199.149 40.1064 199.543 40.247 199.84 40.528C200.138 40.809 200.283 41.1981 200.283 41.6845C200.283 41.8304 200.267 41.9926 200.235 42.1763H197.235L197.23 42.1817ZM197.77 40.9441C197.538 41.1279 197.376 41.3819 197.295 41.7007H199.651C199.667 41.3765 199.581 41.1225 199.392 40.9387C199.203 40.755 198.938 40.6685 198.608 40.6685C198.278 40.6685 198.003 40.7604 197.765 40.9441H197.77Z" fill="white"/>
</svg>
