<svg width="204" height="371" viewBox="0 0 204 371" fill="none" xmlns="http://www.w3.org/2000/svg">
<path d="M17.8581 343.672L70.4971 340.848L0.393105 298.793L17.8581 343.672Z" fill="black" stroke="#FED402" stroke-width="0.312713" stroke-miterlimit="10" stroke-linecap="round" stroke-linejoin="round"/>
<path d="M70.4971 340.847L17.8581 343.671L51.2809 365.335L52.5458 366.156L70.4971 340.847Z" fill="black" stroke="#FED402" stroke-width="0.312713" stroke-miterlimit="10" stroke-linecap="round" stroke-linejoin="round"/>
<path d="M70.4935 340.849L52.5422 366.159L73.1719 485.824L70.4935 340.849Z" fill="black" stroke="#FED402" stroke-width="0.312713" stroke-miterlimit="10" stroke-linecap="round" stroke-linejoin="round"/>
<path d="M73.1719 485.824L52.5422 366.157L53.091 389.297L53.4381 403.898L53.4491 404.3L53.4725 405.457L53.8306 420.531L54.2277 437.138L73.1719 485.824Z" fill="black" stroke="#FED402" stroke-width="0.312713" stroke-miterlimit="10" stroke-linecap="round" stroke-linejoin="round"/>
<path d="M70.4935 340.849L73.1719 485.824L106.163 442.337L70.4935 340.849Z" fill="black" stroke="#FED402" stroke-width="0.312713" stroke-miterlimit="10" stroke-linecap="round" stroke-linejoin="round"/>
<path d="M203.363 314.188L125.448 276.674L113.203 290.974L203.363 314.188Z" fill="black" stroke="#FED402" stroke-width="0.312713" stroke-miterlimit="10" stroke-linecap="round" stroke-linejoin="round"/>
<path d="M170.555 426.309L200.753 452.101L171.257 356.524L170.555 426.309Z" fill="black" stroke="#FED402" stroke-width="0.312713" stroke-miterlimit="10" stroke-linecap="round" stroke-linejoin="round"/>
<path d="M17.8531 343.671L20.1281 411.854L52.2202 404.577L17.8531 343.671Z" fill="black" stroke="#FED402" stroke-width="0.312713" stroke-miterlimit="10" stroke-linecap="round" stroke-linejoin="round"/>
<path d="M0.38942 298.795L70.4934 340.849L85.8413 322.93L0.38942 298.795Z" fill="black" stroke="#FED402" stroke-width="0.312713" stroke-miterlimit="10" stroke-linecap="round" stroke-linejoin="round"/>
<path d="M125.452 276.676L0.393135 298.792L49.772 302.537L125.452 276.676Z" fill="black" stroke="#FED402" stroke-width="0.312713" stroke-miterlimit="10" stroke-linecap="round" stroke-linejoin="round"/>
<path d="M200.751 452.101L203.363 314.195L171.254 356.524L200.751 452.101Z" fill="black" stroke="#FED402" stroke-width="0.312713" stroke-miterlimit="10" stroke-linecap="round" stroke-linejoin="round"/>
<path d="M113.207 290.978L125.452 276.677L49.772 302.537L113.207 290.978Z" fill="black" stroke="#FED402" stroke-width="0.312713" stroke-miterlimit="10" stroke-linecap="round" stroke-linejoin="round"/>
<path d="M113.207 290.978L49.7712 302.537L76.8381 317.835L113.207 290.978Z" fill="black" stroke="#FED402" stroke-width="0.312713" stroke-miterlimit="10" stroke-linecap="round" stroke-linejoin="round"/>
<path d="M170.55 426.304L171.252 356.518L154.61 360.13L170.55 426.304Z" fill="black" stroke="#FED402" stroke-width="0.312713" stroke-miterlimit="10" stroke-linecap="round" stroke-linejoin="round"/>
<path d="M203.363 314.188L113.203 290.974L151.229 310.231L203.363 314.188Z" fill="black" stroke="#FED402" stroke-width="0.312713" stroke-miterlimit="10" stroke-linecap="round" stroke-linejoin="round"/>
<path d="M203.363 314.193L151.229 310.236L70.4932 340.849L203.363 314.193Z" fill="black" stroke="#FED402" stroke-width="0.312713" stroke-miterlimit="10" stroke-linecap="round" stroke-linejoin="round"/>
<path d="M150.781 413.862L170.553 426.304L154.612 360.13L151.01 360.912L150.892 388.376L150.844 399.357L150.781 413.862Z" fill="black" stroke="#FED402" stroke-width="0.312713" stroke-miterlimit="10" stroke-linecap="round" stroke-linejoin="round"/>
<path d="M70.4967 340.849L151.233 310.236L113.374 317.587L85.8462 322.929L70.4967 340.849Z" fill="black" stroke="#FED402" stroke-width="0.312713" stroke-miterlimit="10" stroke-linecap="round" stroke-linejoin="round"/>
<path d="M0.38942 298.791L85.8413 322.926L76.8368 317.833L49.7683 302.535L0.38942 298.791Z" fill="black" stroke="#FED402" stroke-width="0.312713" stroke-miterlimit="10" stroke-linecap="round" stroke-linejoin="round"/>
<path d="M70.4935 340.847L106.163 442.335L106.01 424.654L105.768 396.804L105.733 392.446L105.671 385.475L105.544 370.783L70.4935 340.847Z" fill="black" stroke="#FED402" stroke-width="0.312713" stroke-miterlimit="10" stroke-linecap="round" stroke-linejoin="round"/>
<path d="M70.4932 340.845L105.544 370.781L203.363 314.19L70.4932 340.845Z" fill="black" stroke="#FED402" stroke-width="0.312713" stroke-miterlimit="10" stroke-linecap="round" stroke-linejoin="round"/>
<path d="M203.363 314.191L105.544 370.781L108.921 370.049L113.693 369.014L133.66 364.682L143.465 362.554L151.01 360.914L154.611 360.132L171.254 356.52L203.363 314.191Z" fill="black" stroke="#FED402" stroke-width="0.312713" stroke-miterlimit="10" stroke-linecap="round" stroke-linejoin="round"/>
<path d="M151.233 310.235L113.209 290.978L113.374 317.585L151.233 310.235Z" fill="black" stroke="#FED402" stroke-width="0.312713" stroke-miterlimit="10" stroke-linecap="round" stroke-linejoin="round"/>
<path d="M113.206 290.976L76.8379 317.833L85.844 322.926L113.372 317.583L113.206 290.976Z" fill="black" stroke="#FED402" stroke-width="0.312713" stroke-miterlimit="10" stroke-linecap="round" stroke-linejoin="round"/>
<path d="M17.8531 343.674L52.2202 404.58L51.8606 389.571L51.2774 365.339L17.8531 343.674Z" fill="black" stroke="#FED402" stroke-width="0.312713" stroke-miterlimit="10" stroke-linecap="round" stroke-linejoin="round"/>
<path d="M143.419 383.909L143.467 362.559L133.662 364.687L143.419 383.909Z" fill="black" stroke="#FED402" stroke-width="0.312713" stroke-miterlimit="10" stroke-linecap="round" stroke-linejoin="round"/>
<path d="M113.832 390.613L143.417 383.909L133.66 364.686L113.693 369.017L113.832 390.613Z" fill="black" stroke="#FED402" stroke-width="0.312713" stroke-miterlimit="10" stroke-linecap="round" stroke-linejoin="round"/>
<path d="M113.836 390.613L113.697 369.017L108.925 370.054L113.836 390.613Z" fill="black" stroke="#FED402" stroke-width="0.312713" stroke-miterlimit="10" stroke-linecap="round" stroke-linejoin="round"/>
<path d="M113.836 390.613L108.925 370.054L105.548 370.786L105.673 385.479L113.836 390.613Z" fill="black" stroke="#FED402" stroke-width="0.312713" stroke-miterlimit="10" stroke-linecap="round" stroke-linejoin="round"/>
<path d="M203.363 314.193L70.4932 340.849L0.390793 298.795L125.448 276.678L203.363 314.193Z" fill="black" stroke="#FED402" stroke-width="0.781782" stroke-miterlimit="10" stroke-linecap="round" stroke-linejoin="round"/>
<path d="M49.7701 302.535L76.8385 317.833L85.8462 322.926L113.374 317.583L151.233 310.233L113.207 290.974L49.7701 302.535Z" fill="black" stroke="#FED402" stroke-width="0.781782" stroke-miterlimit="10" stroke-linecap="round" stroke-linejoin="round"/>
<path d="M200.751 452.1L73.1716 485.824L70.4932 340.85L203.363 314.194L200.751 452.1Z" fill="black" stroke="#FED402" stroke-width="0.781782" stroke-miterlimit="10" stroke-linecap="round" stroke-linejoin="round"/>
<path d="M105.669 385.477L105.73 392.449L113.831 390.612L114.034 422.606L106.006 424.54L106.01 424.656L106.16 442.335L170.552 426.308L171.252 356.521L154.611 360.135L151.007 360.917L143.463 362.555L143.415 383.907L113.831 390.612L113.691 369.016L108.919 370.051L105.544 370.784L105.669 385.477Z" fill="black"/>
<path d="M113.831 390.612L105.73 392.449L105.669 385.477L105.544 370.784L108.919 370.051L113.691 369.016L113.831 390.612ZM113.831 390.612L114.034 422.606L106.006 424.54L106.01 424.656L106.16 442.335L170.552 426.308L171.252 356.521L154.611 360.135L151.007 360.917L143.463 362.555L143.415 383.907L113.831 390.612Z" stroke="#FED402" stroke-width="0.781782" stroke-miterlimit="10" stroke-linecap="round" stroke-linejoin="round"/>
<path d="M76.8379 317.833L49.7694 302.535L113.205 290.976L113.372 317.583L85.8424 322.926L76.8379 317.833Z" fill="black" stroke="#FED402" stroke-width="0.781782" stroke-miterlimit="10" stroke-linecap="round" stroke-linejoin="round"/>
<path d="M51.2774 365.336L51.8591 389.568L52.2202 404.577L20.1281 411.854L17.8531 343.671L51.2774 365.336Z" fill="black" stroke="#FED402" stroke-width="0.781782" stroke-miterlimit="10" stroke-linecap="round" stroke-linejoin="round"/>
<path d="M73.1719 485.824L5.45082 432.55L0.391113 298.795L70.4935 340.849L73.1719 485.824Z" fill="black" stroke="#FED402" stroke-width="0.781782" stroke-miterlimit="10" stroke-linecap="round" stroke-linejoin="round"/>
<path d="M51.2763 365.34L17.852 343.676L20.127 411.858L54.2236 437.141L53.828 420.534L53.47 405.46L53.445 404.303L53.4372 403.901L53.0885 389.3L52.5412 366.16L51.2763 365.34Z" fill="black" stroke="#FED402" stroke-width="0.781782" stroke-miterlimit="10" stroke-linecap="round" stroke-linejoin="round"/>
<path d="M150.89 388.377L151.009 360.911L154.61 360.129L171.252 356.518L170.55 426.304L150.779 413.862L150.842 399.356L150.89 388.377Z" fill="black" stroke="#FED402" stroke-width="0.781782" stroke-miterlimit="10" stroke-linecap="round" stroke-linejoin="round"/>
<path d="M113.207 290.976L151.233 310.233L113.373 317.585L113.207 290.976Z" fill="black" stroke="#FED402" stroke-width="0.781782" stroke-miterlimit="10" stroke-linecap="round" stroke-linejoin="round"/>
<path d="M113.697 369.019L113.836 390.613L105.673 385.479L105.55 370.786L108.925 370.052L113.697 369.019Z" fill="black" stroke="#FED402" stroke-width="0.781782" stroke-miterlimit="10" stroke-linecap="round" stroke-linejoin="round"/>
<path d="M143.467 362.553L113.695 369.014L143.467 362.553Z" fill="black"/>
<path d="M143.467 362.553L113.695 369.014" stroke="#FED402" stroke-width="0.781782" stroke-miterlimit="10" stroke-linecap="round" stroke-linejoin="round"/>
<path d="M26.1175 213.012L70.2183 210.646L11.4854 175.412L26.1175 213.012Z" fill="black" stroke="#FED402" stroke-width="0.26199" stroke-miterlimit="10" stroke-linecap="round" stroke-linejoin="round"/>
<path d="M70.2183 210.646L26.1175 213.012L54.119 231.163L55.1787 231.851L70.2183 210.646Z" fill="black" stroke="#FED402" stroke-width="0.26199" stroke-miterlimit="10" stroke-linecap="round" stroke-linejoin="round"/>
<path d="M70.216 210.649L55.1765 231.853L72.46 332.108L70.216 210.649Z" fill="black" stroke="#FED402" stroke-width="0.26199" stroke-miterlimit="10" stroke-linecap="round" stroke-linejoin="round"/>
<path d="M72.46 332.108L55.1765 231.851L55.6363 251.238L55.9271 263.471L55.9363 263.807L55.9559 264.777L56.2559 277.406L56.5886 291.319L72.46 332.108Z" fill="black" stroke="#FED402" stroke-width="0.26199" stroke-miterlimit="10" stroke-linecap="round" stroke-linejoin="round"/>
<path d="M70.2162 210.649L72.4602 332.108L100.1 295.675L70.2162 210.649Z" fill="black" stroke="#FED402" stroke-width="0.26199" stroke-miterlimit="10" stroke-linecap="round" stroke-linejoin="round"/>
<path d="M72.46 332.108L56.5886 291.319L15.7235 287.475L72.46 332.108Z" fill="black" stroke="#FED402" stroke-width="0.26199" stroke-miterlimit="10" stroke-linecap="round" stroke-linejoin="round"/>
<path d="M28.0204 270.137L15.7239 287.474L56.5864 291.318L28.0204 270.137Z" fill="black" stroke="#FED402" stroke-width="0.26199" stroke-miterlimit="10" stroke-linecap="round" stroke-linejoin="round"/>
<path d="M181.534 188.312L116.257 156.882L105.999 168.863L181.534 188.312Z" fill="black" stroke="#FED402" stroke-width="0.26199" stroke-miterlimit="10" stroke-linecap="round" stroke-linejoin="round"/>
<path d="M100.101 295.675L72.461 332.108L154.046 282.246L100.101 295.675Z" fill="black" stroke="#FED402" stroke-width="0.26199" stroke-miterlimit="10" stroke-linecap="round" stroke-linejoin="round"/>
<path d="M100.101 295.67L154.046 282.241L137.482 271.818L100.101 295.67Z" fill="black" stroke="#FED402" stroke-width="0.26199" stroke-miterlimit="10" stroke-linecap="round" stroke-linejoin="round"/>
<path d="M154.048 282.246L72.4629 332.108L179.348 303.854L154.048 282.246Z" fill="black" stroke="#FED402" stroke-width="0.26199" stroke-miterlimit="10" stroke-linecap="round" stroke-linejoin="round"/>
<path d="M154.048 282.244L179.348 303.853L154.636 223.778L154.048 282.244Z" fill="black" stroke="#FED402" stroke-width="0.26199" stroke-miterlimit="10" stroke-linecap="round" stroke-linejoin="round"/>
<path d="M26.1151 213.011L28.021 270.134L54.9077 264.037L26.1151 213.011Z" fill="black" stroke="#FED402" stroke-width="0.26199" stroke-miterlimit="10" stroke-linecap="round" stroke-linejoin="round"/>
<path d="M11.4834 175.412L70.2163 210.645L83.0747 195.633L11.4834 175.412Z" fill="black" stroke="#FED402" stroke-width="0.26199" stroke-miterlimit="10" stroke-linecap="round" stroke-linejoin="round"/>
<path d="M116.26 156.882L11.4866 175.412L52.8561 178.549L116.26 156.882Z" fill="black" stroke="#FED402" stroke-width="0.26199" stroke-miterlimit="10" stroke-linecap="round" stroke-linejoin="round"/>
<path d="M28.0204 270.137L56.5864 291.318L56.255 277.405L28.0204 270.137Z" fill="black" stroke="#FED402" stroke-width="0.26199" stroke-miterlimit="10" stroke-linecap="round" stroke-linejoin="round"/>
<path d="M179.345 303.853L181.534 188.315L154.633 223.778L179.345 303.853Z" fill="black" stroke="#FED402" stroke-width="0.26199" stroke-miterlimit="10" stroke-linecap="round" stroke-linejoin="round"/>
<path d="M106.002 168.864L116.26 156.884L52.8561 178.549L106.002 168.864Z" fill="black" stroke="#FED402" stroke-width="0.26199" stroke-miterlimit="10" stroke-linecap="round" stroke-linejoin="round"/>
<path d="M106.002 168.862L52.856 178.547L75.5326 191.363L106.002 168.862Z" fill="black" stroke="#FED402" stroke-width="0.26199" stroke-miterlimit="10" stroke-linecap="round" stroke-linejoin="round"/>
<path d="M154.043 282.241L154.631 223.775L140.688 226.801L154.043 282.241Z" fill="black" stroke="#FED402" stroke-width="0.26199" stroke-miterlimit="10" stroke-linecap="round" stroke-linejoin="round"/>
<path d="M181.534 188.312L105.999 168.863L137.857 184.996L181.534 188.312Z" fill="black" stroke="#FED402" stroke-width="0.26199" stroke-miterlimit="10" stroke-linecap="round" stroke-linejoin="round"/>
<path d="M181.534 188.313L137.857 184.997L70.2161 210.645L181.534 188.313Z" fill="black" stroke="#FED402" stroke-width="0.26199" stroke-miterlimit="10" stroke-linecap="round" stroke-linejoin="round"/>
<path d="M137.482 271.818L154.046 282.241L140.691 226.801L137.673 227.456L137.575 250.465L137.534 259.666L137.482 271.818Z" fill="black" stroke="#FED402" stroke-width="0.26199" stroke-miterlimit="10" stroke-linecap="round" stroke-linejoin="round"/>
<path d="M70.2188 210.645L137.859 184.997L106.142 191.156L83.0786 195.631L70.2188 210.645Z" fill="black" stroke="#FED402" stroke-width="0.26199" stroke-miterlimit="10" stroke-linecap="round" stroke-linejoin="round"/>
<path d="M11.4834 175.411L83.0747 195.632L75.5307 191.365L52.8529 178.549L11.4834 175.411Z" fill="black" stroke="#FED402" stroke-width="0.26199" stroke-miterlimit="10" stroke-linecap="round" stroke-linejoin="round"/>
<path d="M70.2162 210.644L100.1 295.67L99.9717 280.857L99.7687 257.524L99.7399 253.874L99.6875 248.032L99.5814 235.724L70.2162 210.644Z" fill="black" stroke="#FED402" stroke-width="0.26199" stroke-miterlimit="10" stroke-linecap="round" stroke-linejoin="round"/>
<path d="M70.2161 210.644L99.5812 235.725L181.534 188.312L70.2161 210.644Z" fill="black" stroke="#FED402" stroke-width="0.26199" stroke-miterlimit="10" stroke-linecap="round" stroke-linejoin="round"/>
<path d="M181.534 188.314L99.5811 235.725L102.411 235.112L106.409 234.244L123.137 230.614L131.351 228.832L137.673 227.458L140.69 226.803L154.633 223.777L181.534 188.314Z" fill="black" stroke="#FED402" stroke-width="0.26199" stroke-miterlimit="10" stroke-linecap="round" stroke-linejoin="round"/>
<path d="M137.859 184.999L106.003 168.866L106.142 191.157L137.859 184.999Z" fill="black" stroke="#FED402" stroke-width="0.26199" stroke-miterlimit="10" stroke-linecap="round" stroke-linejoin="round"/>
<path d="M100.101 295.67L137.481 271.818L106.802 279.213L99.9724 280.857L100.101 295.67Z" fill="black" stroke="#FED402" stroke-width="0.26199" stroke-miterlimit="10" stroke-linecap="round" stroke-linejoin="round"/>
<path d="M28.0246 270.133L56.2593 277.401L55.9593 264.771L54.9113 264.036L28.0246 270.133Z" fill="black" stroke="#FED402" stroke-width="0.26199" stroke-miterlimit="10" stroke-linecap="round" stroke-linejoin="round"/>
<path d="M54.911 264.042L55.959 264.778L55.938 263.809L54.911 264.042Z" fill="black" stroke="#FED402" stroke-width="0.26199" stroke-miterlimit="10" stroke-linecap="round" stroke-linejoin="round"/>
<path d="M54.9124 264.038L55.9395 263.805L55.9329 263.467L54.9124 264.038Z" fill="black" stroke="#FED402" stroke-width="0.26199" stroke-miterlimit="10" stroke-linecap="round" stroke-linejoin="round"/>
<path d="M106.002 168.864L75.5324 191.365L83.0777 195.632L106.141 191.156L106.002 168.864Z" fill="black" stroke="#FED402" stroke-width="0.26199" stroke-miterlimit="10" stroke-linecap="round" stroke-linejoin="round"/>
<path d="M54.9083 264.038L55.9287 263.467L55.6366 251.236L54.6057 251.462L54.9083 264.038Z" fill="black" stroke="#FED402" stroke-width="0.26199" stroke-miterlimit="10" stroke-linecap="round" stroke-linejoin="round"/>
<path d="M26.1151 213.012L54.9077 264.038L54.6065 251.464L54.1178 231.162L26.1151 213.012Z" fill="black" stroke="#FED402" stroke-width="0.26199" stroke-miterlimit="10" stroke-linecap="round" stroke-linejoin="round"/>
<path d="M106.695 279.141L137.481 271.819" stroke="#FED402" stroke-width="0.26199" stroke-miterlimit="10" stroke-linecap="round" stroke-linejoin="round"/>
<path d="M106.695 279.141L137.481 271.819L106.526 252.336L106.695 279.141Z" fill="black" stroke="#FED402" stroke-width="0.26199" stroke-miterlimit="10" stroke-linecap="round" stroke-linejoin="round"/>
<path d="M106.529 252.341L137.484 271.825L137.537 259.671L106.529 252.341Z" fill="black" stroke="#FED402" stroke-width="0.26199" stroke-miterlimit="10" stroke-linecap="round" stroke-linejoin="round"/>
<path d="M106.696 279.139L106.527 252.335L99.7701 257.523L99.9705 280.76L106.696 279.139Z" fill="black" stroke="#FED402" stroke-width="0.26199" stroke-miterlimit="10" stroke-linecap="round" stroke-linejoin="round"/>
<path d="M99.7711 257.527L106.528 252.339L99.7423 253.878L99.7711 257.527Z" fill="black" stroke="#FED402" stroke-width="0.26199" stroke-miterlimit="10" stroke-linecap="round" stroke-linejoin="round"/>
<path d="M99.7397 253.877L106.528 252.338L99.6886 248.036L99.7397 253.877Z" fill="black" stroke="#FED402" stroke-width="0.26199" stroke-miterlimit="10" stroke-linecap="round" stroke-linejoin="round"/>
<path d="M106.523 252.337L137.531 259.667L137.571 250.469L131.308 246.719L106.523 252.337Z" fill="black" stroke="#FED402" stroke-width="0.26199" stroke-miterlimit="10" stroke-linecap="round" stroke-linejoin="round"/>
<path d="M131.313 246.722L131.354 228.834L123.139 230.617L131.313 246.722Z" fill="black" stroke="#FED402" stroke-width="0.26199" stroke-miterlimit="10" stroke-linecap="round" stroke-linejoin="round"/>
<path d="M106.524 252.339L131.31 246.722L123.136 230.617L106.407 234.246L106.524 252.339Z" fill="black" stroke="#FED402" stroke-width="0.26199" stroke-miterlimit="10" stroke-linecap="round" stroke-linejoin="round"/>
<path d="M106.528 252.339L106.411 234.246L102.413 235.114L106.528 252.339Z" fill="black" stroke="#FED402" stroke-width="0.26199" stroke-miterlimit="10" stroke-linecap="round" stroke-linejoin="round"/>
<path d="M106.528 252.339L102.413 235.114L99.5838 235.727L99.6886 248.037L106.528 252.339Z" fill="black" stroke="#FED402" stroke-width="0.26199" stroke-miterlimit="10" stroke-linecap="round" stroke-linejoin="round"/>
<path d="M181.534 188.313L70.216 210.645L11.4845 175.412L116.257 156.883L181.534 188.313Z" fill="black" stroke="#FED402" stroke-width="0.654975" stroke-miterlimit="10" stroke-linecap="round" stroke-linejoin="round"/>
<path d="M52.8541 178.549L75.532 191.365L83.0786 195.632L106.142 191.156L137.859 184.998L106.001 168.863L52.8541 178.549Z" fill="black" stroke="#FED402" stroke-width="0.654975" stroke-miterlimit="10" stroke-linecap="round" stroke-linejoin="round"/>
<path d="M100.101 295.67L99.9725 280.857L106.803 279.213L137.482 271.82L154.046 282.243L100.101 295.67Z" fill="black" stroke="#FED402" stroke-width="0.654975" stroke-miterlimit="10" stroke-linecap="round" stroke-linejoin="round"/>
<path d="M55.955 264.774L56.255 277.405L56.5864 291.318L28.0204 270.137L54.9071 264.039L55.955 264.774Z" fill="black" stroke="#FED402" stroke-width="0.654975" stroke-miterlimit="10" stroke-linecap="round" stroke-linejoin="round"/>
<path d="M55.6395 251.236L55.9303 263.467L55.9395 263.805L54.9111 264.038L54.6086 251.462L55.6395 251.236Z" fill="black" stroke="#FED402" stroke-width="0.654975" stroke-miterlimit="10" stroke-linecap="round" stroke-linejoin="round"/>
<path d="M99.7397 253.877L99.6886 248.036L106.528 252.338L99.7397 253.877Z" fill="black" stroke="#FED402" stroke-width="0.654975" stroke-miterlimit="10" stroke-linecap="round" stroke-linejoin="round"/>
<path d="M137.571 250.469L137.531 259.666L137.478 271.82L106.523 252.337L131.308 246.721L137.571 250.469Z" fill="black" stroke="#FED402" stroke-width="0.654975" stroke-miterlimit="10" stroke-linecap="round" stroke-linejoin="round"/>
<path d="M179.345 303.855L72.46 332.108L70.2161 210.649L181.534 188.317L179.345 303.855Z" fill="black" stroke="#FED402" stroke-width="0.654975" stroke-miterlimit="10" stroke-linecap="round" stroke-linejoin="round"/>
<path d="M99.6856 248.035L99.7367 253.876L106.523 252.336L106.694 279.141L99.9685 280.762L99.9711 280.858L100.097 295.67L154.044 282.243L154.631 223.776L140.69 226.803L137.67 227.458L131.35 228.831L131.309 246.719L106.523 252.336L106.407 234.243L102.409 235.111L99.5807 235.725L99.6856 248.035Z" fill="black"/>
<path d="M106.523 252.336L99.7367 253.876L99.6855 248.035L99.5807 235.725L102.409 235.111L106.407 234.243L106.523 252.336ZM106.523 252.336L106.694 279.141L99.9685 280.762L99.9711 280.858L100.097 295.67L154.044 282.243L154.631 223.776L140.69 226.803L137.67 227.458L131.35 228.831L131.309 246.719L106.523 252.336Z" stroke="#FED402" stroke-width="0.654975" stroke-miterlimit="10" stroke-linecap="round" stroke-linejoin="round"/>
<path d="M55.959 264.771L54.911 264.036L55.938 263.804L55.959 264.771Z" fill="black" stroke="#FED402" stroke-width="0.654975" stroke-miterlimit="10" stroke-linecap="round" stroke-linejoin="round"/>
<path d="M75.5324 191.365L52.8545 178.549L106 168.864L106.141 191.156L83.0763 195.632L75.5324 191.365Z" fill="black" stroke="#FED402" stroke-width="0.654975" stroke-miterlimit="10" stroke-linecap="round" stroke-linejoin="round"/>
<path d="M54.1178 231.161L54.6051 251.463L54.9077 264.037L28.021 270.134L26.1151 213.011L54.1178 231.161Z" fill="black" stroke="#FED402" stroke-width="0.654975" stroke-miterlimit="10" stroke-linecap="round" stroke-linejoin="round"/>
<path d="M72.46 332.108L15.7235 287.475L11.4845 175.416L70.216 210.648L72.46 332.108Z" fill="black" stroke="#FED402" stroke-width="0.654975" stroke-miterlimit="10" stroke-linecap="round" stroke-linejoin="round"/>
<path d="M54.1172 231.164L26.1144 213.014L28.0204 270.137L56.5864 291.318L56.255 277.405L55.955 264.776L55.9341 263.807L55.9275 263.47L55.6354 251.238L55.1769 231.851L54.1172 231.164Z" fill="black" stroke="#FED402" stroke-width="0.654975" stroke-miterlimit="10" stroke-linecap="round" stroke-linejoin="round"/>
<path d="M137.572 250.466L137.671 227.456L140.688 226.801L154.631 223.775L154.043 282.241L137.479 271.818L137.531 259.664L137.572 250.466Z" fill="black" stroke="#FED402" stroke-width="0.654975" stroke-miterlimit="10" stroke-linecap="round" stroke-linejoin="round"/>
<path d="M106.001 168.865L137.859 184.998L106.14 191.157L106.001 168.865Z" fill="black" stroke="#FED402" stroke-width="0.654975" stroke-miterlimit="10" stroke-linecap="round" stroke-linejoin="round"/>
<path d="M106.695 279.141L106.526 252.336L137.481 271.819L106.695 279.141Z" fill="black" stroke="#FED402" stroke-width="0.654975" stroke-miterlimit="10" stroke-linecap="round" stroke-linejoin="round"/>
<path d="M106.411 234.247L106.528 252.339L99.6886 248.037L99.5851 235.727L102.413 235.113L106.411 234.247Z" fill="black" stroke="#FED402" stroke-width="0.654975" stroke-miterlimit="10" stroke-linecap="round" stroke-linejoin="round"/>
<path d="M131.354 228.831L106.411 234.244L131.354 228.831Z" fill="black"/>
<path d="M131.354 228.831L106.411 234.244" stroke="#FED402" stroke-width="0.654975" stroke-miterlimit="10" stroke-linecap="round" stroke-linejoin="round"/>
<path d="M99.7367 253.876L99.9712 280.858L99.7367 253.876Z" fill="black"/>
<path d="M99.7367 253.876L99.9712 280.858" stroke="#FED402" stroke-width="0.654975" stroke-miterlimit="10" stroke-linecap="round" stroke-linejoin="round"/>
<path d="M38.6807 106.427L74.5928 104.5L26.7654 75.8088L38.6807 106.427Z" fill="black" stroke="#FED402" stroke-width="0.213343" stroke-miterlimit="10" stroke-linecap="round" stroke-linejoin="round"/>
<path d="M74.5928 104.497L38.6807 106.423L61.4828 121.204L62.3458 121.764L74.5928 104.497Z" fill="black" stroke="#FED402" stroke-width="0.213343" stroke-miterlimit="10" stroke-linecap="round" stroke-linejoin="round"/>
<path d="M74.5902 104.499L62.3432 121.766L76.4175 203.406L74.5902 104.499Z" fill="black" stroke="#FED402" stroke-width="0.213343" stroke-miterlimit="10" stroke-linecap="round" stroke-linejoin="round"/>
<path d="M76.4175 203.406L62.3432 121.765L62.7176 137.552L62.9545 147.513L62.9619 147.787L62.9779 148.577L63.2222 158.861L63.4931 170.19L76.4175 203.406Z" fill="black" stroke="#FED402" stroke-width="0.213343" stroke-miterlimit="10" stroke-linecap="round" stroke-linejoin="round"/>
<path d="M74.5883 104.499L76.4156 203.406L98.9233 173.738L74.5883 104.499Z" fill="black" stroke="#FED402" stroke-width="0.213343" stroke-miterlimit="10" stroke-linecap="round" stroke-linejoin="round"/>
<path d="M76.4175 203.406L63.4931 170.191L30.2158 167.061L76.4175 203.406Z" fill="black" stroke="#FED402" stroke-width="0.213343" stroke-miterlimit="10" stroke-linecap="round" stroke-linejoin="round"/>
<path d="M40.2332 152.944L30.22 167.062L63.4951 170.192L40.2332 152.944Z" fill="black" stroke="#FED402" stroke-width="0.213343" stroke-miterlimit="10" stroke-linecap="round" stroke-linejoin="round"/>
<path d="M165.24 86.3135L112.083 60.7198L103.73 70.4759L165.24 86.3135Z" fill="black" stroke="#FED402" stroke-width="0.213343" stroke-miterlimit="10" stroke-linecap="round" stroke-linejoin="round"/>
<path d="M98.9265 173.738L76.4188 203.406L142.855 162.803L98.9265 173.738Z" fill="black" stroke="#FED402" stroke-width="0.213343" stroke-miterlimit="10" stroke-linecap="round" stroke-linejoin="round"/>
<path d="M98.9265 173.736L142.855 162.801L129.366 154.313L98.9265 173.736Z" fill="black" stroke="#FED402" stroke-width="0.213343" stroke-miterlimit="10" stroke-linecap="round" stroke-linejoin="round"/>
<path d="M142.859 162.803L76.4227 203.406L163.461 180.399L142.859 162.803Z" fill="black" stroke="#FED402" stroke-width="0.213343" stroke-miterlimit="10" stroke-linecap="round" stroke-linejoin="round"/>
<path d="M142.859 162.806L163.461 180.402L143.338 115.196L142.859 162.806Z" fill="black" stroke="#FED402" stroke-width="0.213343" stroke-miterlimit="10" stroke-linecap="round" stroke-linejoin="round"/>
<path d="M38.6786 106.427L40.2306 152.943L62.125 147.979L38.6786 106.427Z" fill="black" stroke="#FED402" stroke-width="0.213343" stroke-miterlimit="10" stroke-linecap="round" stroke-linejoin="round"/>
<path d="M26.7638 75.8076L74.5911 104.498L85.062 92.2735L26.7638 75.8076Z" fill="black" stroke="#FED402" stroke-width="0.213343" stroke-miterlimit="10" stroke-linecap="round" stroke-linejoin="round"/>
<path d="M112.088 60.7198L26.7687 75.8085L60.4567 78.3633L112.088 60.7198Z" fill="black" stroke="#FED402" stroke-width="0.213343" stroke-miterlimit="10" stroke-linecap="round" stroke-linejoin="round"/>
<path d="M40.2332 152.944L63.4951 170.192L63.2252 158.863L40.2332 152.944Z" fill="black" stroke="#FED402" stroke-width="0.213343" stroke-miterlimit="10" stroke-linecap="round" stroke-linejoin="round"/>
<path d="M163.457 180.402L165.24 86.3182L143.334 115.196L163.457 180.402Z" fill="black" stroke="#FED402" stroke-width="0.213343" stroke-miterlimit="10" stroke-linecap="round" stroke-linejoin="round"/>
<path d="M103.734 70.4771L112.088 60.7209L60.4567 78.3633L103.734 70.4771Z" fill="black" stroke="#FED402" stroke-width="0.213343" stroke-miterlimit="10" stroke-linecap="round" stroke-linejoin="round"/>
<path d="M103.73 70.4739L60.4522 78.3601L78.9182 88.7969L103.73 70.4739Z" fill="black" stroke="#FED402" stroke-width="0.213343" stroke-miterlimit="10" stroke-linecap="round" stroke-linejoin="round"/>
<path d="M142.854 162.8L143.333 115.19L131.978 117.654L142.854 162.8Z" fill="black" stroke="#FED402" stroke-width="0.213343" stroke-miterlimit="10" stroke-linecap="round" stroke-linejoin="round"/>
<path d="M165.24 86.3135L103.73 70.4759L129.672 83.6136L165.24 86.3135Z" fill="black" stroke="#FED402" stroke-width="0.213343" stroke-miterlimit="10" stroke-linecap="round" stroke-linejoin="round"/>
<path d="M165.24 86.3127L129.672 83.6128L74.5912 104.498L165.24 86.3127Z" fill="black" stroke="#FED402" stroke-width="0.213343" stroke-miterlimit="10" stroke-linecap="round" stroke-linejoin="round"/>
<path d="M129.366 154.312L142.855 162.8L131.98 117.654L129.522 118.187L129.442 136.924L129.409 144.416L129.366 154.312Z" fill="black" stroke="#FED402" stroke-width="0.213343" stroke-miterlimit="10" stroke-linecap="round" stroke-linejoin="round"/>
<path d="M74.5918 104.498L129.673 83.6128L103.844 88.6285L85.0638 92.2724L74.5918 104.498Z" fill="black" stroke="#FED402" stroke-width="0.213343" stroke-miterlimit="10" stroke-linecap="round" stroke-linejoin="round"/>
<path d="M26.7638 75.8047L85.062 92.2705L78.9188 88.7962L60.4518 78.3595L26.7638 75.8047Z" fill="black" stroke="#FED402" stroke-width="0.213343" stroke-miterlimit="10" stroke-linecap="round" stroke-linejoin="round"/>
<path d="M74.5883 104.498L98.9233 173.736L98.8188 161.674L98.6535 142.674L98.63 139.701L98.5873 134.944L98.5009 124.921L74.5883 104.498Z" fill="black" stroke="#FED402" stroke-width="0.213343" stroke-miterlimit="10" stroke-linecap="round" stroke-linejoin="round"/>
<path d="M74.5912 104.499L98.5038 124.922L165.24 86.3131L74.5912 104.499Z" fill="black" stroke="#FED402" stroke-width="0.213343" stroke-miterlimit="10" stroke-linecap="round" stroke-linejoin="round"/>
<path d="M165.24 86.3142L98.5038 124.922L100.808 124.423L104.064 123.716L117.686 120.761L124.375 119.309L129.523 118.19L131.98 117.656L143.334 115.192L165.24 86.3142Z" fill="black" stroke="#FED402" stroke-width="0.213343" stroke-miterlimit="10" stroke-linecap="round" stroke-linejoin="round"/>
<path d="M129.673 83.6123L103.731 70.4746L103.844 88.627L129.673 83.6123Z" fill="black" stroke="#FED402" stroke-width="0.213343" stroke-miterlimit="10" stroke-linecap="round" stroke-linejoin="round"/>
<path d="M98.9283 173.736L129.368 154.313L104.386 160.335L98.8238 161.674L98.9283 173.736Z" fill="black" stroke="#FED402" stroke-width="0.213343" stroke-miterlimit="10" stroke-linecap="round" stroke-linejoin="round"/>
<path d="M40.2326 152.94L63.2246 158.859L62.9803 148.574L62.127 147.976L40.2326 152.94Z" fill="black" stroke="#FED402" stroke-width="0.213343" stroke-miterlimit="10" stroke-linecap="round" stroke-linejoin="round"/>
<path d="M62.129 147.981L62.9824 148.581L62.9654 147.791L62.129 147.981Z" fill="black" stroke="#FED402" stroke-width="0.213343" stroke-miterlimit="10" stroke-linecap="round" stroke-linejoin="round"/>
<path d="M62.129 147.979L62.9653 147.79L62.96 147.514L62.129 147.979Z" fill="black" stroke="#FED402" stroke-width="0.213343" stroke-miterlimit="10" stroke-linecap="round" stroke-linejoin="round"/>
<path d="M103.732 70.4732L78.9198 88.7962L85.0641 92.2705L103.845 88.6255L103.732 70.4732Z" fill="black" stroke="#FED402" stroke-width="0.213343" stroke-miterlimit="10" stroke-linecap="round" stroke-linejoin="round"/>
<path d="M62.1226 147.979L62.9536 147.514L62.7157 137.554L61.8762 137.739L62.1226 147.979Z" fill="black" stroke="#FED402" stroke-width="0.213343" stroke-miterlimit="10" stroke-linecap="round" stroke-linejoin="round"/>
<path d="M38.6786 106.428L62.125 147.979L61.8797 137.74L61.4818 121.208L38.6786 106.428Z" fill="black" stroke="#FED402" stroke-width="0.213343" stroke-miterlimit="10" stroke-linecap="round" stroke-linejoin="round"/>
<path d="M104.298 160.275L129.368 154.313" stroke="#FED402" stroke-width="0.213343" stroke-miterlimit="10" stroke-linecap="round" stroke-linejoin="round"/>
<path d="M104.298 160.275L129.368 154.313L104.161 138.448L104.298 160.275Z" fill="black" stroke="#FED402" stroke-width="0.213343" stroke-miterlimit="10" stroke-linecap="round" stroke-linejoin="round"/>
<path d="M104.163 138.452L129.371 154.318L129.414 144.421L104.163 138.452Z" fill="black" stroke="#FED402" stroke-width="0.213343" stroke-miterlimit="10" stroke-linecap="round" stroke-linejoin="round"/>
<path d="M104.294 160.274L104.156 138.447L98.6542 142.672L98.8174 161.594L104.294 160.274Z" fill="black" stroke="#FED402" stroke-width="0.213343" stroke-miterlimit="10" stroke-linecap="round" stroke-linejoin="round"/>
<path d="M98.66 142.677L104.162 138.451L98.6365 139.705L98.66 142.677Z" fill="black" stroke="#FED402" stroke-width="0.213343" stroke-miterlimit="10" stroke-linecap="round" stroke-linejoin="round"/>
<path d="M98.6344 139.702L104.162 138.449L98.5928 134.946L98.6344 139.702Z" fill="black" stroke="#FED402" stroke-width="0.213343" stroke-miterlimit="10" stroke-linecap="round" stroke-linejoin="round"/>
<path d="M104.16 138.45L129.41 144.419L129.443 136.928L124.343 133.876L104.16 138.45Z" fill="black" stroke="#FED402" stroke-width="0.213343" stroke-miterlimit="10" stroke-linecap="round" stroke-linejoin="round"/>
<path d="M124.344 133.878L124.377 119.312L117.688 120.764L124.344 133.878Z" fill="black" stroke="#FED402" stroke-width="0.213343" stroke-miterlimit="10" stroke-linecap="round" stroke-linejoin="round"/>
<path d="M104.159 138.451L124.343 133.877L117.686 120.763L104.065 123.718L104.159 138.451Z" fill="black" stroke="#FED402" stroke-width="0.213343" stroke-miterlimit="10" stroke-linecap="round" stroke-linejoin="round"/>
<path d="M104.162 138.451L104.067 123.718L100.812 124.425L104.162 138.451Z" fill="black" stroke="#FED402" stroke-width="0.213343" stroke-miterlimit="10" stroke-linecap="round" stroke-linejoin="round"/>
<path d="M104.162 138.451L100.812 124.425L98.5074 124.924L98.5928 134.948L104.162 138.451Z" fill="black" stroke="#FED402" stroke-width="0.213343" stroke-miterlimit="10" stroke-linecap="round" stroke-linejoin="round"/>
<path d="M165.24 86.3127L74.5912 104.498L26.765 75.8076L112.083 60.7189L165.24 86.3127Z" fill="black" stroke="#FED402" stroke-width="0.533359" stroke-miterlimit="10" stroke-linecap="round" stroke-linejoin="round"/>
<path d="M60.4514 78.3595L78.9185 88.7962L85.0638 92.2705L103.844 88.6255L129.673 83.6109L103.73 70.4722L60.4514 78.3595Z" fill="black" stroke="#FED402" stroke-width="0.533359" stroke-miterlimit="10" stroke-linecap="round" stroke-linejoin="round"/>
<path d="M98.9265 173.736L98.822 161.674L104.384 160.335L129.366 154.315L142.855 162.802L98.9265 173.736Z" fill="black" stroke="#FED402" stroke-width="0.533359" stroke-miterlimit="10" stroke-linecap="round" stroke-linejoin="round"/>
<path d="M62.981 148.577L63.2252 158.863L63.4951 170.192L40.2332 152.944L62.1276 147.978L62.981 148.577Z" fill="black" stroke="#FED402" stroke-width="0.533359" stroke-miterlimit="10" stroke-linecap="round" stroke-linejoin="round"/>
<path d="M62.721 137.554L62.9579 147.514L62.9653 147.79L62.1279 147.979L61.8816 137.739L62.721 137.554Z" fill="black" stroke="#FED402" stroke-width="0.533359" stroke-miterlimit="10" stroke-linecap="round" stroke-linejoin="round"/>
<path d="M98.6344 139.702L98.5928 134.946L104.162 138.449L98.6344 139.702Z" fill="black" stroke="#FED402" stroke-width="0.533359" stroke-miterlimit="10" stroke-linecap="round" stroke-linejoin="round"/>
<path d="M129.443 136.928L129.41 144.418L129.367 154.315L104.16 138.449L124.343 133.876L129.443 136.928Z" fill="black" stroke="#FED402" stroke-width="0.533359" stroke-miterlimit="10" stroke-linecap="round" stroke-linejoin="round"/>
<path d="M163.457 180.399L76.4185 203.406L74.5912 104.5L165.24 86.3144L163.457 180.399Z" fill="black" stroke="#FED402" stroke-width="0.533359" stroke-miterlimit="10" stroke-linecap="round" stroke-linejoin="round"/>
<path d="M98.5891 134.946L98.6307 139.702L104.157 138.449L104.296 160.277L98.8195 161.596L98.8216 161.675L98.924 173.736L142.855 162.802L143.333 115.191L131.979 117.657L129.521 118.19L124.374 119.308L124.341 133.875L104.157 138.449L104.062 123.716L100.807 124.422L98.5037 124.922L98.5891 134.946Z" fill="black"/>
<path d="M104.157 138.449L98.6307 139.702L98.5891 134.946L98.5037 124.922L100.807 124.422L104.062 123.716L104.157 138.449ZM104.157 138.449L104.296 160.277L98.8195 161.596L98.8216 161.675L98.9241 173.736L142.855 162.802L143.333 115.191L131.979 117.657L129.521 118.19L124.374 119.308L124.341 133.875L104.157 138.449Z" stroke="#FED402" stroke-width="0.533359" stroke-miterlimit="10" stroke-linecap="round" stroke-linejoin="round"/>
<path d="M62.9824 148.574L62.129 147.975L62.9654 147.786L62.9824 148.574Z" fill="black" stroke="#FED402" stroke-width="0.533359" stroke-miterlimit="10" stroke-linecap="round" stroke-linejoin="round"/>
<path d="M78.9198 88.7962L60.4528 78.3595L103.731 70.4732L103.845 88.6255L85.063 92.2705L78.9198 88.7962Z" fill="black" stroke="#FED402" stroke-width="0.533359" stroke-miterlimit="10" stroke-linecap="round" stroke-linejoin="round"/>
<path d="M61.4818 121.207L61.8786 137.739L62.125 147.979L40.2306 152.943L38.6786 106.427L61.4818 121.207Z" fill="black" stroke="#FED402" stroke-width="0.533359" stroke-miterlimit="10" stroke-linecap="round" stroke-linejoin="round"/>
<path d="M76.4175 203.406L30.2159 167.061L26.7639 75.8086L74.5902 104.499L76.4175 203.406Z" fill="black" stroke="#FED402" stroke-width="0.533359" stroke-miterlimit="10" stroke-linecap="round" stroke-linejoin="round"/>
<path d="M61.4844 121.208L38.6812 106.427L40.2332 152.944L63.4951 170.192L63.2252 158.863L62.981 148.578L62.9639 147.789L62.9586 147.515L62.7207 137.554L62.3473 121.767L61.4844 121.208Z" fill="black" stroke="#FED402" stroke-width="0.533359" stroke-miterlimit="10" stroke-linecap="round" stroke-linejoin="round"/>
<path d="M129.441 136.925L129.522 118.187L131.978 117.653L143.333 115.189L142.854 162.8L129.365 154.312L129.408 144.415L129.441 136.925Z" fill="black" stroke="#FED402" stroke-width="0.533359" stroke-miterlimit="10" stroke-linecap="round" stroke-linejoin="round"/>
<path d="M103.73 70.4736L129.673 83.6113L103.843 88.627L103.73 70.4736Z" fill="black" stroke="#FED402" stroke-width="0.533359" stroke-miterlimit="10" stroke-linecap="round" stroke-linejoin="round"/>
<path d="M104.298 160.275L104.161 138.448L129.368 154.313L104.298 160.275Z" fill="black" stroke="#FED402" stroke-width="0.533359" stroke-miterlimit="10" stroke-linecap="round" stroke-linejoin="round"/>
<path d="M104.067 123.719L104.162 138.451L98.5928 134.948L98.5085 124.924L100.812 124.424L104.067 123.719Z" fill="black" stroke="#FED402" stroke-width="0.533359" stroke-miterlimit="10" stroke-linecap="round" stroke-linejoin="round"/>
<path d="M124.377 119.306L104.066 123.714L124.377 119.306Z" fill="black"/>
<path d="M124.377 119.306L104.066 123.714" stroke="#FED402" stroke-width="0.533359" stroke-miterlimit="10" stroke-linecap="round" stroke-linejoin="round"/>
<path d="M98.6289 139.701L98.8198 161.674L98.6289 139.701Z" fill="black"/>
<path d="M98.6289 139.701L98.8198 161.674" stroke="#FED402" stroke-width="0.533359" stroke-miterlimit="10" stroke-linecap="round" stroke-linejoin="round"/>
<g filter="url(#filter0_i_5086_2054)">
<g clip-path="url(#clip0_5086_2054)">
<g filter="url(#filter1_dddddiiii_5086_2054)">
<rect x="45.8638" width="95.4146" height="95.4146" rx="31.8049" fill="url(#paint0_radial_5086_2054)"/>
</g>
<path d="M110.98 32.3955H76.1538V43.2898H110.98V32.3955Z" fill="#FED402"/>
<path d="M112.558 50.9015L78.6787 40.4531L74.5893 53.7129L108.468 64.1613L112.558 50.9015Z" fill="#FED402"/>
<path d="M110.98 61.3291H76.1538V72.2234H110.98V61.3291Z" fill="#FED402"/>
</g>
</g>
<defs>
<filter id="filter0_i_5086_2054" x="45.8662" y="0" width="98.065" height="95.415" filterUnits="userSpaceOnUse" color-interpolation-filters="sRGB">
<feFlood flood-opacity="0" result="BackgroundImageFix"/>
<feBlend mode="normal" in="SourceGraphic" in2="BackgroundImageFix" result="shape"/>
<feColorMatrix in="SourceAlpha" type="matrix" values="0 0 0 0 0 0 0 0 0 0 0 0 0 0 0 0 0 0 127 0" result="hardAlpha"/>
<feOffset dx="2.65041"/>
<feGaussianBlur stdDeviation="3.18049"/>
<feComposite in2="hardAlpha" operator="arithmetic" k2="-1" k3="1"/>
<feColorMatrix type="matrix" values="0 0 0 0 0.996078 0 0 0 0 0.831373 0 0 0 0 0.00784314 0 0 0 0.36 0"/>
<feBlend mode="normal" in2="shape" result="effect1_innerShadow_5086_2054"/>
</filter>
<filter id="filter1_dddddiiii_5086_2054" x="-135.809" y="-39.2838" width="458.76" height="865.428" filterUnits="userSpaceOnUse" color-interpolation-filters="sRGB">
<feFlood flood-opacity="0" result="BackgroundImageFix"/>
<feColorMatrix in="SourceAlpha" type="matrix" values="0 0 0 0 0 0 0 0 0 0 0 0 0 0 0 0 0 0 127 0" result="hardAlpha"/>
<feOffset dy="20.1859"/>
<feGaussianBlur stdDeviation="28.2602"/>
<feColorMatrix type="matrix" values="0 0 0 0 0.996078 0 0 0 0 0.831373 0 0 0 0 0.00784314 0 0 0 0.32 0"/>
<feBlend mode="normal" in2="BackgroundImageFix" result="effect1_dropShadow_5086_2054"/>
<feColorMatrix in="SourceAlpha" type="matrix" values="0 0 0 0 0 0 0 0 0 0 0 0 0 0 0 0 0 0 127 0" result="hardAlpha"/>
<feOffset dy="88.8179"/>
<feGaussianBlur stdDeviation="52.4833"/>
<feColorMatrix type="matrix" values="0 0 0 0 0.996078 0 0 0 0 0.831373 0 0 0 0 0.00784314 0 0 0 0.28 0"/>
<feBlend mode="normal" in2="effect1_dropShadow_5086_2054" result="effect2_dropShadow_5086_2054"/>
<feColorMatrix in="SourceAlpha" type="matrix" values="0 0 0 0 0 0 0 0 0 0 0 0 0 0 0 0 0 0 127 0" result="hardAlpha"/>
<feOffset dy="197.822"/>
<feGaussianBlur stdDeviation="70.6506"/>
<feColorMatrix type="matrix" values="0 0 0 0 0.996078 0 0 0 0 0.831373 0 0 0 0 0.00784314 0 0 0 0.16 0"/>
<feBlend mode="normal" in2="effect2_dropShadow_5086_2054" result="effect3_dropShadow_5086_2054"/>
<feColorMatrix in="SourceAlpha" type="matrix" values="0 0 0 0 0 0 0 0 0 0 0 0 0 0 0 0 0 0 127 0" result="hardAlpha"/>
<feOffset dy="351.234"/>
<feGaussianBlur stdDeviation="84.7807"/>
<feColorMatrix type="matrix" values="0 0 0 0 0.996078 0 0 0 0 0.831373 0 0 0 0 0.00784314 0 0 0 0.05 0"/>
<feBlend mode="normal" in2="effect3_dropShadow_5086_2054" result="effect4_dropShadow_5086_2054"/>
<feColorMatrix in="SourceAlpha" type="matrix" values="0 0 0 0 0 0 0 0 0 0 0 0 0 0 0 0 0 0 127 0" result="hardAlpha"/>
<feOffset dy="549.056"/>
<feGaussianBlur stdDeviation="90.8365"/>
<feColorMatrix type="matrix" values="0 0 0 0 0.996078 0 0 0 0 0.831373 0 0 0 0 0.00784314 0 0 0 0.01 0"/>
<feBlend mode="normal" in2="effect4_dropShadow_5086_2054" result="effect5_dropShadow_5086_2054"/>
<feBlend mode="normal" in="SourceGraphic" in2="effect5_dropShadow_5086_2054" result="shape"/>
<feColorMatrix in="SourceAlpha" type="matrix" values="0 0 0 0 0 0 0 0 0 0 0 0 0 0 0 0 0 0 127 0" result="hardAlpha"/>
<feMorphology radius="20.3192" operator="dilate" in="SourceAlpha" result="effect6_innerShadow_5086_2054"/>
<feOffset dy="-67.7307"/>
<feGaussianBlur stdDeviation="29.8015"/>
<feComposite in2="hardAlpha" operator="arithmetic" k2="-1" k3="1"/>
<feColorMatrix type="matrix" values="0 0 0 0 0 0 0 0 0 0 0 0 0 0 0 0 0 0 0.29 0"/>
<feBlend mode="soft-light" in2="shape" result="effect6_innerShadow_5086_2054"/>
<feColorMatrix in="SourceAlpha" type="matrix" values="0 0 0 0 0 0 0 0 0 0 0 0 0 0 0 0 0 0 127 0" result="hardAlpha"/>
<feMorphology radius="13.5461" operator="dilate" in="SourceAlpha" result="effect7_innerShadow_5086_2054"/>
<feOffset dy="-27.0923"/>
<feGaussianBlur stdDeviation="5.75711"/>
<feComposite in2="hardAlpha" operator="arithmetic" k2="-1" k3="1"/>
<feColorMatrix type="matrix" values="0 0 0 0 0.00146484 0 0 0 0 0.00146484 0 0 0 0 0.00146484 0 0 0 0.59 0"/>
<feBlend mode="soft-light" in2="effect6_innerShadow_5086_2054" result="effect7_innerShadow_5086_2054"/>
<feColorMatrix in="SourceAlpha" type="matrix" values="0 0 0 0 0 0 0 0 0 0 0 0 0 0 0 0 0 0 127 0" result="hardAlpha"/>
<feMorphology radius="54.1846" operator="dilate" in="SourceAlpha" result="effect8_innerShadow_5086_2054"/>
<feOffset dy="60.9576"/>
<feGaussianBlur stdDeviation="29.4629"/>
<feComposite in2="hardAlpha" operator="arithmetic" k2="-1" k3="1"/>
<feColorMatrix type="matrix" values="0 0 0 0 0.12549 0 0 0 0 0.12549 0 0 0 0 0.12549 0 0 0 1 0"/>
<feBlend mode="overlay" in2="effect7_innerShadow_5086_2054" result="effect8_innerShadow_5086_2054"/>
<feColorMatrix in="SourceAlpha" type="matrix" values="0 0 0 0 0 0 0 0 0 0 0 0 0 0 0 0 0 0 127 0" result="hardAlpha"/>
<feOffset dy="6.77307"/>
<feGaussianBlur stdDeviation="10.1596"/>
<feComposite in2="hardAlpha" operator="arithmetic" k2="-1" k3="1"/>
<feColorMatrix type="matrix" values="0 0 0 0 0.996078 0 0 0 0 0.831373 0 0 0 0 0.00784314 0 0 0 0.7 0"/>
<feBlend mode="normal" in2="effect8_innerShadow_5086_2054" result="effect9_innerShadow_5086_2054"/>
</filter>
<radialGradient id="paint0_radial_5086_2054" cx="0" cy="0" r="1" gradientUnits="userSpaceOnUse" gradientTransform="translate(93.5711 47.7073) rotate(90) scale(70.9621)">
<stop/>
<stop offset="1" stop-color="#39393A"/>
</radialGradient>
<clipPath id="clip0_5086_2054">
<rect x="45.8662" width="95.4146" height="95.4146" rx="47.7073" fill="white"/>
</clipPath>
</defs>
</svg>
