<svg width="405" height="322" viewBox="0 0 405 322" fill="none" xmlns="http://www.w3.org/2000/svg">
<circle cx="203.071" cy="236.62" r="114.134" stroke="white" stroke-opacity="0.32" stroke-width="0.397599"/>
<circle cx="203.099" cy="217.838" r="159.758" stroke="#FED402" stroke-width="0.198799"/>
<circle cx="203.173" cy="201.782" r="201.682" stroke="#FED402" stroke-width="0.198799"/>
<path d="M257.617 174.745H148.818V208.779H257.617V174.745Z" fill="#FED402"/>
<path d="M262.547 232.566L156.707 199.925L143.932 241.349L249.772 273.991L262.547 232.566Z" fill="#FED402"/>
<path d="M257.617 265.139H148.818V299.173H257.617V265.139Z" fill="#FED402"/>
<rect x="203.055" y="53.4746" width="6.61027" height="6.61027" transform="rotate(44.7916 203.055 53.4746)" fill="#FED402"/>
<rect x="3.65918" y="232.397" width="6.61027" height="6.61027" transform="rotate(33.6089 3.65918 232.397)" fill="#FED402"/>
<rect x="62.9717" y="50.6943" width="6.61027" height="6.61027" transform="rotate(1.30945 62.9717 50.6943)" fill="#FED402"/>
<rect x="351.025" y="64.4717" width="6.61027" height="6.61027" transform="rotate(4.17945 351.025 64.4717)" fill="#FED402"/>
<rect x="347.047" y="148.354" width="6.61027" height="6.61027" transform="rotate(22.007 347.047 148.354)" fill="#FED402"/>
</svg>
