<svg width="41" height="41" viewBox="0 0 41 41" fill="none" xmlns="http://www.w3.org/2000/svg">
<path fill-rule="evenodd" clip-rule="evenodd" d="M20.7934 5.49992C12.4349 5.49992 5.66594 12.2581 5.66594 20.5859C5.66594 28.9139 12.4349 35.672 20.7934 35.672C26.9965 35.672 32.3289 31.9491 34.6637 26.6184C35.035 25.7703 36.0236 25.3841 36.8716 25.7554C37.7195 26.1269 38.1058 27.1154 37.7344 27.9634C34.8833 34.473 28.3716 39.0245 20.7934 39.0245C10.5912 39.0245 2.31348 30.7732 2.31348 20.5859C2.31348 10.3988 10.5912 2.14746 20.7934 2.14746C28.6521 2.14746 35.3635 7.04155 38.0361 13.9399C38.6231 15.4552 39.0154 17.067 39.1823 18.7438C39.2403 19.3266 38.9899 19.8975 38.5217 20.2495C38.0535 20.6015 37.4355 20.6837 36.8916 20.4661L32.701 18.7894C32.1561 18.5714 31.7648 18.0842 31.6696 17.505C31.5744 16.9259 31.7891 16.3391 32.2355 15.9581L34.4434 14.0739C32.0057 9.0016 26.8091 5.49992 20.7934 5.49992Z" fill="#FCD404"/>
<path fill-rule="evenodd" clip-rule="evenodd" d="M16.2628 16.2114C16.2628 13.7436 18.297 11.7861 20.7527 11.7861C23.2083 11.7861 25.2426 13.7436 25.2426 16.2114V18.8724C26.3514 19.9842 27.0385 21.5088 27.0385 23.2013C27.0385 26.641 24.2002 29.3865 20.7527 29.3865C17.3051 29.3865 14.4668 26.641 14.4668 23.2013C14.4668 21.5088 15.154 19.9842 16.2628 18.8724V16.2114ZM18.7771 17.3284C19.3994 17.1255 20.0639 17.016 20.7527 17.016C21.4414 17.016 22.1059 17.1255 22.7283 17.3284V16.2114C22.7283 15.1798 21.8679 14.3005 20.7527 14.3005C19.6375 14.3005 18.7771 15.1798 18.7771 16.2114V17.3284Z" fill="#FCD404"/>
</svg>
